<svg xmlns="http://www.w3.org/2000/svg" width="3000" height="3000" version="1.0" viewBox="0 0 2250 2250"><defs><clipPath id="a"><path d="M75.32 1089H109v70H75.32Zm0 0"/></clipPath><clipPath id="b"><path d="M302 841.25h34v566.605h-34Zm0 0"/></clipPath><clipPath id="c"><path d="M642 1089h33.918v70H642Zm0 0"/></clipPath></defs><g clip-path="url(#a)"><path fill="#0a0c27" d="M92.016 1089.867c-9.223 0-16.696 7.473-16.696 16.696v35.73c0 9.223 7.473 16.695 16.696 16.695 9.222 0 16.695-7.472 16.695-16.695v-35.73c0-9.223-7.473-16.696-16.695-16.696Zm0 0"/></g><path fill="#0a0c27" d="M148.781 1042.309c-9.222 0-16.695 7.472-16.695 16.695v130.844c0 9.222 7.473 16.695 16.695 16.695 9.223 0 16.696-7.469 16.696-16.691v-130.844c0-9.223-7.473-16.7-16.696-16.7ZM205.547 956.973c-9.223 0-16.695 7.472-16.695 16.695v301.52c0 9.222 7.472 16.695 16.695 16.695 9.219 0 16.691-7.473 16.691-16.696V973.668c0-9.223-7.472-16.695-16.691-16.695ZM262.309 1028.973c-9.223 0-16.696 7.472-16.696 16.695v157.52c0 9.222 7.473 16.695 16.696 16.695 9.222 0 16.695-7.473 16.695-16.696v-157.519c.004-9.219-7.473-16.695-16.695-16.695Zm0 0"/><g clip-path="url(#b)"><path fill="#0a0c27" d="M319.074 841.473c-9.219 0-16.691 7.472-16.691 16.695v532.52c0 9.222 7.472 16.695 16.691 16.695 9.223 0 16.696-7.473 16.696-16.696V858.168c0-9.223-7.473-16.695-16.696-16.695Zm0 0"/></g><path fill="#0a0c27" d="M375.84 916.14c-9.223 0-16.695 7.473-16.695 16.696v383.184c0 9.222 7.472 16.695 16.695 16.695 9.223 0 16.695-7.473 16.695-16.695V932.836c0-9.223-7.473-16.695-16.695-16.695ZM432.605 1041.754c-9.222 0-16.695 7.473-16.695 16.695v131.961c0 9.219 7.473 16.692 16.695 16.692 9.223 0 16.696-7.473 16.696-16.692v-131.96c0-9.223-7.473-16.696-16.696-16.696ZM489.371 895.613c-9.223 0-16.695 7.473-16.695 16.696v424.238c0 9.223 7.472 16.695 16.695 16.695 9.223 0 16.695-7.472 16.695-16.695V912.309c0-9.22-7.472-16.696-16.695-16.696ZM546.137 960.96c-9.223 0-16.696 7.474-16.696 16.696V1271.2c0 9.223 7.473 16.696 16.696 16.696 9.218 0 16.695-7.473 16.695-16.696V977.656c-.004-9.218-7.477-16.695-16.695-16.695ZM602.898 1059.871c-9.222 0-16.695 7.473-16.695 16.695v95.723c0 9.219 7.473 16.691 16.695 16.691 9.223 0 16.696-7.472 16.696-16.69v-95.724c.004-9.218-7.473-16.695-16.696-16.695Zm0 0"/><g clip-path="url(#c)"><path fill="#0a0c27" d="M659.664 1089.867c-9.219 0-16.691 7.473-16.691 16.696v35.73c0 9.223 7.472 16.695 16.691 16.695 9.223 0 16.695-7.472 16.695-16.695v-35.73c0-9.223-7.472-16.696-16.695-16.696Zm0 0"/></g><path fill="#0a0c27" d="M758.467 934.456h96.171c4.97 0 9.125 1.586 12.47 4.75 3.35 3.156 5.03 7.219 5.03 12.188 0 4.78-1.68 8.656-5.03 11.625-3.345 2.968-7.5 4.453-12.47 4.453h-80.375l2.579-4.875v55.969l-2.297-2.297h67.172c4.976 0 9.14 1.578 12.484 4.734 3.351 3.156 5.031 7.227 5.031 12.203 0 4.781-1.68 8.656-5.031 11.625-3.344 2.969-7.508 4.453-12.484 4.453h-66.313l1.438-2.297v57.985l-2.297-2.594h80.093c4.97 0 9.125 1.68 12.47 5.031 3.35 3.344 5.03 7.219 5.03 11.625 0 4.782-1.68 8.703-5.03 11.766-3.345 3.062-7.5 4.594-12.47 4.594h-96.171c-4.97 0-9.133-1.672-12.485-5.016-3.344-3.352-5.015-7.52-5.015-12.5V951.972c0-4.977 1.671-9.14 5.015-12.485 3.352-3.351 7.516-5.03 12.485-5.03ZM1091.142 1143.425c4.02 0 7.75 1.672 11.187 5.016 3.446 3.351 5.172 7.234 5.172 11.64 0 4.395-1.965 8.555-5.89 12.485-3.918 3.925-8.938 7.421-15.063 10.484a97.544 97.544 0 0 1-19.094 7.172c-6.593 1.719-12.574 2.578-17.937 2.578-11.867 0-21.34-1.102-28.422-3.297-7.074-2.2-12.906-4.687-17.5-7.469a365.185 365.185 0 0 0-12.922-7.468c-4.012-2.2-8.89-3.297-14.64-3.297-3.637 0-6.555.617-8.75 1.859a118.54 118.54 0 0 1-7.172 3.734c-2.586 1.25-6.172 1.875-10.766 1.875-4.781 0-8.805-1.82-12.062-5.453-3.25-3.636-4.875-7.558-4.875-11.765 0-7.47 3.347-12.45 10.046-14.938l59.422-22.094 25.828 6.313-55.687 20.672 16.36-9.469c6.695 0 12.581 1 17.656 3a133.289 133.289 0 0 1 14.5 6.75 149.663 149.663 0 0 0 14.203 6.75c4.882 2.008 10.484 3.016 16.797 3.016 5.164 0 9.52-.868 13.062-2.594 3.54-1.719 6.648-3.633 9.328-5.734 3.25-2.493 6.164-4.743 8.75-6.75 2.582-2.012 5.406-3.016 8.469-3.016Zm-1.14-108.5c0 14.355-2.4 27.75-7.188 40.187-4.781 12.438-11.528 23.399-20.235 32.875-8.71 9.47-19.043 16.887-31 22.25-11.96 5.352-25.015 8.032-39.171 8.032-14.168 0-27.184-2.68-39.047-8.032-11.868-5.363-22.153-12.78-30.86-22.25-8.71-9.476-15.453-20.437-20.234-32.875-4.781-12.437-7.172-25.832-7.172-40.187 0-14.352 2.39-27.75 7.172-40.188 4.781-12.437 11.523-23.39 20.234-32.859 8.707-9.477 18.992-16.895 30.86-22.25 11.863-5.352 24.879-8.031 39.047-8.031 14.156 0 27.21 2.68 39.171 8.031 11.957 5.355 22.29 12.773 31 22.25 8.707 9.469 15.454 20.422 20.235 32.86 4.789 12.437 7.187 25.835 7.187 40.187Zm-37.313 0c0-12.82-2.59-24.445-7.766-34.875-5.168-10.426-12.246-18.703-21.234-24.828-8.992-6.125-19.418-9.188-31.281-9.188-11.868 0-22.297 3.063-31.297 9.188-8.993 6.125-16.024 14.355-21.094 24.687-5.074 10.336-7.61 22.008-7.61 35.016 0 12.824 2.536 24.45 7.61 34.875 5.07 10.43 12.101 18.703 21.094 24.828 9 6.125 19.43 9.188 31.297 9.188 11.863 0 22.289-3.063 31.28-9.188 8.99-6.125 16.067-14.398 21.235-24.828 5.176-10.426 7.766-22.05 7.766-34.875ZM1264.498 934.175c4.977 0 9 1.68 12.063 5.031 3.062 3.344 4.593 7.508 4.593 12.485v103.906c0 15.886-3.402 29.953-10.203 42.203-6.793 12.242-16.12 21.808-27.984 28.703-11.867 6.887-25.64 10.328-41.328 10.328-15.688 0-29.516-3.441-41.485-10.328-11.96-6.895-21.336-16.46-28.125-28.703-6.793-12.25-10.187-26.317-10.187-42.203V951.69c0-4.977 1.719-9.141 5.156-12.485 3.445-3.351 7.852-5.031 13.219-5.031 4.394 0 8.363 1.68 11.906 5.031 3.54 3.344 5.313 7.508 5.313 12.485v103.906c0 9.562 2.054 17.84 6.171 24.828 4.114 6.98 9.567 12.387 16.36 16.219 6.789 3.824 14.015 5.734 21.672 5.734 8.226 0 15.879-1.91 22.953-5.734 7.082-3.832 12.82-9.239 17.219-16.22 4.406-6.987 6.609-15.265 6.609-24.827V951.69c0-4.977 1.437-9.141 4.312-12.485 2.875-3.351 6.797-5.031 11.766-5.031ZM1360.066 1117.878c0 4.98-1.82 9.148-5.453 12.5-3.637 3.344-7.844 5.016-12.625 5.016-5.367 0-9.672-1.672-12.922-5.016-3.25-3.352-4.875-7.52-4.875-12.5V951.972c0-4.977 1.719-9.14 5.156-12.485 3.445-3.351 7.852-5.03 13.219-5.03 4.582 0 8.644 1.679 12.187 5.03 3.54 3.344 5.313 7.508 5.313 12.485ZM1486.074 934.456c9.946 0 19.274 2.875 27.985 8.625 8.707 5.742 15.738 13.492 21.094 23.25 5.363 9.75 8.046 20.656 8.046 32.719 0 11.867-2.683 22.68-8.046 32.437-5.356 9.762-12.387 17.559-21.094 23.391-8.711 5.836-18.04 8.75-27.985 8.75h-52.812l2.86-5.156v59.406c0 4.98-1.532 9.148-4.594 12.5-3.055 3.344-7.07 5.016-12.047 5.016-4.782 0-8.703-1.672-11.766-5.016-3.062-3.352-4.594-7.52-4.594-12.5V951.972c0-4.977 1.672-9.14 5.016-12.485 3.351-3.351 7.516-5.03 12.484-5.03Zm0 96.453c3.633 0 7.172-1.531 10.61-4.593 3.445-3.063 6.316-7.032 8.61-11.907 2.3-4.883 3.452-10.004 3.452-15.36 0-5.55-1.152-10.718-3.453-15.5-2.293-4.788-5.164-8.663-8.61-11.624-3.437-2.969-6.976-4.453-10.609-4.453h-53.39l3.437-5.172v73.203l-3.156-4.594ZM1659.147 934.456c9.946 0 19.274 2.875 27.985 8.625 8.707 5.742 15.738 13.492 21.093 23.25 5.364 9.75 8.047 20.656 8.047 32.719 0 11.867-2.683 22.68-8.047 32.437-5.355 9.762-12.386 17.559-21.093 23.391-8.711 5.836-18.04 8.75-27.985 8.75h-52.812l2.86-5.156v59.406c0 4.98-1.532 9.148-4.595 12.5-3.054 3.344-7.07 5.016-12.046 5.016-4.782 0-8.704-1.672-11.766-5.016-3.063-3.352-4.594-7.52-4.594-12.5V951.972c0-4.977 1.672-9.14 5.016-12.485 3.351-3.351 7.515-5.03 12.484-5.03Zm0 96.453c3.633 0 7.172-1.531 10.61-4.593 3.445-3.063 6.316-7.032 8.61-11.907 2.3-4.883 3.452-10.004 3.452-15.36 0-5.55-1.152-10.718-3.453-15.5-2.293-4.788-5.164-8.663-8.61-11.624-3.437-2.969-6.976-4.453-10.609-4.453h-53.39l3.437-5.172v73.203l-3.156-4.594ZM1766.767 934.456h96.172c4.969 0 9.125 1.586 12.469 4.75 3.351 3.156 5.031 7.219 5.031 12.188 0 4.78-1.68 8.656-5.031 11.625-3.344 2.968-7.5 4.453-12.469 4.453h-80.375l2.578-4.875v55.969l-2.297-2.297h67.172c4.977 0 9.14 1.578 12.485 4.734 3.351 3.156 5.03 7.227 5.03 12.203 0 4.781-1.679 8.656-5.03 11.625-3.344 2.969-7.508 4.453-12.485 4.453h-66.312l1.437-2.297v57.985l-2.297-2.594h80.094c4.969 0 9.125 1.68 12.469 5.031 3.351 3.344 5.031 7.219 5.031 11.625 0 4.782-1.68 8.703-5.031 11.766-3.344 3.062-7.5 4.594-12.469 4.594h-96.172c-4.969 0-9.133-1.672-12.484-5.016-3.344-3.352-5.016-7.52-5.016-12.5V951.972c0-4.977 1.672-9.14 5.016-12.485 3.351-3.351 7.515-5.03 12.484-5.03ZM1999.552 934.456c13.781 0 26.023 2.586 36.734 7.75 10.719 5.168 19.758 12.39 27.125 21.672 7.375 9.281 12.926 20 16.657 32.156 3.726 12.149 5.593 25.11 5.593 38.89 0 18.563-3.351 35.454-10.047 50.673-6.699 15.21-16.414 27.312-29.14 36.312-12.719 8.992-28.36 13.485-46.922 13.485h-68.61c-4.968 0-9.132-1.672-12.484-5.016-3.344-3.352-5.015-7.52-5.015-12.5V951.972c0-4.977 1.671-9.14 5.015-12.485 3.352-3.351 7.516-5.03 12.485-5.03Zm-2.875 167.922c12.062 0 21.914-3.11 29.562-9.328 7.657-6.219 13.254-14.442 16.797-24.672 3.54-10.238 5.313-21.39 5.313-33.453 0-8.988-1.008-17.55-3.016-25.688-2.012-8.132-5.12-15.312-9.328-21.53-4.21-6.22-9.57-11.145-16.078-14.782-6.5-3.633-14.25-5.453-23.25-5.453h-50.234l2.875-2.578v140.64l-1.72-3.156ZM2135.6 1071.956c-6.513 0-10.055-3.633-10.626-10.906l-8.328-105.64c-.387-5.927 1.191-10.9 4.734-14.923 3.54-4.02 8.18-6.03 13.922-6.03 5.739 0 10.426 2.01 14.063 6.03 3.644 4.024 5.176 8.996 4.594 14.922l-8.032 105.64c-.574 7.274-4.015 10.907-10.328 10.907Zm-2.016 63.438c-5.555 0-9.813-1.485-12.782-4.453-2.96-2.97-4.437-7.223-4.437-12.766v-4.89c0-5.54 1.476-9.798 4.437-12.766 2.97-2.97 7.227-4.453 12.782-4.453h3.734c5.55 0 9.805 1.484 12.766 4.453 2.968 2.968 4.453 7.226 4.453 12.765v4.89c0 5.544-1.485 9.798-4.453 12.767-2.961 2.968-7.215 4.453-12.766 4.453ZM748.628 1212.475h72.079c1.57 0 2.945.558 4.125 1.672 1.175 1.117 1.765 2.523 1.765 4.218 0 1.711-.59 3.09-1.765 4.141-1.18 1.043-2.555 1.563-4.125 1.563h-67.563l1.969-3.344v55.187l-2.156-2.562h58.906c1.57 0 2.945.594 4.125 1.781 1.176 1.18 1.765 2.555 1.765 4.125 0 1.7-.59 3.074-1.765 4.125-1.18 1.043-2.555 1.563-4.125 1.563h-58.516l1.766-1.97v56.563l-.985-1.187h66.579c1.57 0 2.945.594 4.125 1.781 1.175 1.18 1.765 2.555 1.765 4.125 0 1.7-.59 3.074-1.765 4.125-1.18 1.043-2.555 1.563-4.125 1.563h-72.079c-1.562 0-2.937-.586-4.125-1.766-1.18-1.176-1.765-2.55-1.765-4.125v-125.688c0-1.562.586-2.93 1.765-4.109 1.188-1.187 2.563-1.781 4.125-1.781ZM953.649 1212.287c1.832 0 3.3.528 4.406 1.578 1.113 1.043 1.672 2.352 1.672 3.922 0 .918-.195 1.899-.578 2.938l-52.438 125.297c-.656 1.304-1.511 2.281-2.562 2.937-1.043.656-2.086.985-3.125.985-1.188 0-2.309-.329-3.36-.985a4.963 4.963 0 0 1-2.14-2.75l-52.234-125.094a15.178 15.178 0 0 1-.407-1.359 7.792 7.792 0 0 1-.187-1.781c0-1.695.617-3.067 1.86-4.11 1.25-1.05 2.523-1.578 3.827-1.578 2.75 0 4.711 1.438 5.89 4.313l49.095 117.437h-3.532l48.313-117.828c1.312-2.613 3.144-3.922 5.5-3.922ZM990.748 1212.475h72.078c1.57 0 2.946.558 4.125 1.672 1.176 1.117 1.766 2.523 1.766 4.218 0 1.711-.59 3.09-1.766 4.141-1.18 1.043-2.554 1.563-4.125 1.563h-67.562l1.969-3.344v55.187l-2.157-2.562h58.907c1.57 0 2.945.594 4.125 1.781 1.175 1.18 1.765 2.555 1.765 4.125 0 1.7-.59 3.074-1.765 4.125-1.18 1.043-2.555 1.563-4.125 1.563h-58.516l1.766-1.97v56.563l-.985-1.187h66.578c1.57 0 2.946.594 4.125 1.781 1.176 1.18 1.766 2.555 1.766 4.125 0 1.7-.59 3.074-1.766 4.125-1.18 1.043-2.554 1.563-4.125 1.563h-72.078c-1.562 0-2.937-.586-4.125-1.766-1.18-1.176-1.765-2.55-1.765-4.125v-125.688c0-1.562.585-2.93 1.765-4.109 1.188-1.187 2.563-1.781 4.125-1.781ZM1196.94 1212.475c1.708 0 3.051.527 4.032 1.578.976 1.043 1.469 2.352 1.469 3.922v125.687c0 1.961-.625 3.496-1.875 4.61-1.243 1.117-2.649 1.672-4.22 1.672-.78 0-1.632-.16-2.546-.485-.918-.332-1.637-.828-2.156-1.484l-87.578-118.016 3.328-1.765v116.453c0 1.437-.528 2.683-1.578 3.734-1.043 1.043-2.352 1.563-3.922 1.563-1.7 0-3.043-.52-4.032-1.563-.98-1.05-1.468-2.297-1.468-3.734v-126.282c0-1.957.586-3.425 1.765-4.406 1.188-.988 2.5-1.484 3.938-1.484.781 0 1.629.168 2.547.5a4.204 4.204 0 0 1 2.156 1.672l86.61 116.64-1.97 3.532v-116.844c0-1.57.555-2.88 1.672-3.922 1.114-1.05 2.391-1.578 3.829-1.578ZM1280.208 1349.944c-1.836 0-3.309-.586-4.422-1.766-1.117-1.176-1.672-2.55-1.672-4.125v-125.094h12.172v125.094c0 1.574-.59 2.95-1.766 4.125-1.18 1.18-2.617 1.766-4.312 1.766Zm-46.75-126.266c-1.563 0-2.938-.52-4.125-1.563-1.18-1.05-1.766-2.43-1.766-4.14 0-1.57.586-2.88 1.766-3.922 1.187-1.05 2.562-1.578 4.125-1.578h93.484c1.57 0 2.945.527 4.125 1.578 1.176 1.043 1.766 2.418 1.766 4.125 0 1.7-.59 3.043-1.766 4.031-1.18.98-2.555 1.469-4.125 1.469ZM1404.704 1349.944c-1.836 0-3.308-.586-4.421-1.766-1.118-1.176-1.672-2.55-1.672-4.125v-125.094h12.172v125.094c0 1.574-.59 2.95-1.766 4.125-1.18 1.18-2.617 1.766-4.313 1.766Zm-46.75-126.266c-1.562 0-2.937-.52-4.125-1.563-1.18-1.05-1.765-2.43-1.765-4.14 0-1.57.586-2.88 1.765-3.922 1.188-1.05 2.563-1.578 4.125-1.578h93.485c1.57 0 2.945.527 4.125 1.578 1.176 1.043 1.765 2.418 1.765 4.125 0 1.7-.59 3.043-1.765 4.031-1.18.98-2.555 1.469-4.125 1.469ZM1488.34 1212.475h72.08c1.57 0 2.944.558 4.124 1.672 1.176 1.117 1.766 2.523 1.766 4.218 0 1.711-.59 3.09-1.766 4.141-1.18 1.043-2.555 1.563-4.125 1.563h-67.562l1.968-3.344v55.187l-2.156-2.562h58.906c1.57 0 2.946.594 4.125 1.781 1.176 1.18 1.766 2.555 1.766 4.125 0 1.7-.59 3.074-1.766 4.125-1.18 1.043-2.554 1.563-4.125 1.563h-58.515l1.765-1.97v56.563l-.984-1.187h66.578c1.57 0 2.945.594 4.125 1.781 1.176 1.18 1.766 2.555 1.766 4.125 0 1.7-.59 3.074-1.766 4.125-1.18 1.043-2.555 1.563-4.125 1.563h-72.078c-1.563 0-2.938-.586-4.125-1.766-1.18-1.176-1.766-2.55-1.766-4.125v-125.688c0-1.562.586-2.93 1.766-4.109 1.187-1.187 2.562-1.781 4.125-1.781ZM1694.346 1222.694c1.562 1.043 2.472 2.386 2.734 4.03.27 1.638-.12 3.243-1.172 4.813-.918 1.18-2.093 1.836-3.531 1.97a7.588 7.588 0 0 1-4.125-.798 65.88 65.88 0 0 0-16.016-7.656c-5.687-1.832-11.804-2.75-18.343-2.75-7.993 0-15.422 1.406-22.297 4.219-6.875 2.812-12.867 6.87-17.969 12.172-5.105 5.304-9.062 11.558-11.875 18.765-2.812 7.2-4.219 15.117-4.219 23.75 0 8.906 1.438 16.996 4.313 24.266 2.883 7.262 6.91 13.512 12.078 18.75a52.728 52.728 0 0 0 17.969 11.969c6.812 2.75 14.144 4.125 22 4.125 6.406 0 12.457-.914 18.156-2.75a70 70 0 0 0 16-7.454c1.312-.789 2.719-1.085 4.219-.89 1.507.199 2.722.953 3.64 2.265 1.176 1.438 1.598 2.977 1.266 4.61-.324 1.637-1.203 2.914-2.64 3.828-3.274 2.094-7.137 4.059-11.594 5.89-4.45 1.837-9.165 3.31-14.141 4.422a67.993 67.993 0 0 1-14.906 1.672c-9.43 0-18.266-1.703-26.516-5.109a69.351 69.351 0 0 1-22-14.438c-6.406-6.218-11.414-13.644-15.016-22.28-3.605-8.645-5.406-18.27-5.406-28.876 0-10.207 1.766-19.597 5.297-28.172 3.54-8.582 8.453-16.015 14.734-22.297 6.282-6.28 13.61-11.187 21.985-14.718 8.383-3.54 17.36-5.313 26.922-5.313 7.457 0 14.656 1.047 21.593 3.14 6.938 2.095 13.223 5.044 18.86 8.845ZM1728.51 1212.475c1.563 0 2.961.594 4.204 1.781 1.25 1.18 1.875 2.617 1.875 4.313v125.28c-.125 1.712-.813 3.153-2.063 4.329-1.242 1.18-2.648 1.766-4.219 1.766-1.836 0-3.308-.586-4.422-1.766-1.117-1.176-1.671-2.617-1.671-4.328v-125.281c0-1.696.586-3.133 1.765-4.313 1.188-1.187 2.696-1.781 4.531-1.781Zm92.094 0c1.832 0 3.305.594 4.422 1.781 1.113 1.18 1.672 2.617 1.672 4.313v125.28c-.137 1.712-.762 3.153-1.875 4.329-1.117 1.18-2.59 1.766-4.422 1.766-1.7 0-3.137-.586-4.312-1.766-1.18-1.176-1.766-2.617-1.766-4.328v-125.281c0-1.696.617-3.133 1.86-4.313 1.25-1.187 2.722-1.781 4.421-1.781Zm-93.078 61.469h93.281l-.203 11.39h-93.875ZM1964.144 1212.475c1.707 0 3.051.527 4.031 1.578.977 1.043 1.47 2.352 1.47 3.922v125.687c0 1.961-.626 3.496-1.876 4.61-1.242 1.117-2.648 1.672-4.219 1.672-.78 0-1.632-.16-2.546-.485-.918-.332-1.637-.828-2.157-1.484l-87.578-118.016 3.328-1.765v116.453c0 1.437-.527 2.683-1.578 3.734-1.043 1.043-2.351 1.563-3.922 1.563-1.699 0-3.043-.52-4.03-1.563-.981-1.05-1.47-2.297-1.47-3.734v-126.282c0-1.957.586-3.425 1.766-4.406 1.187-.988 2.5-1.484 3.937-1.484.782 0 1.63.168 2.547.5a4.204 4.204 0 0 1 2.157 1.672l86.609 116.64-1.969 3.532v-116.844c0-1.57.555-2.88 1.672-3.922 1.113-1.05 2.39-1.578 3.828-1.578ZM2018.927 1343.85c-.125 1.71-.813 3.152-2.063 4.328-1.242 1.18-2.648 1.766-4.218 1.766-1.836 0-3.309-.586-4.422-1.766-1.117-1.176-1.672-2.617-1.672-4.328v-125.281c0-1.696.586-3.133 1.766-4.313 1.187-1.187 2.695-1.781 4.53-1.781 1.563 0 2.962.594 4.204 1.781 1.25 1.18 1.875 2.617 1.875 4.313ZM2153.831 1350.725c-1.7 0-3.137-.719-4.312-2.156l-55.766-70.11 9.219-9.219 56.172 71.079c.914 1.312 1.375 2.687 1.375 4.125 0 2.093-.758 3.668-2.266 4.718-1.5 1.04-2.977 1.563-4.422 1.563Zm-2.156-137.844c1.57 0 2.914.59 4.031 1.766 1.113 1.18 1.672 2.484 1.672 3.922 0 1.574-.594 2.949-1.781 4.125l-89.14 83.453-1.58-13.344 82.485-77.969c1.301-1.3 2.739-1.953 4.313-1.953Zm-89.938 137.063c-1.836 0-3.308-.586-4.422-1.766-1.117-1.176-1.671-2.617-1.671-4.328v-125.281c0-1.696.585-3.133 1.765-4.313 1.188-1.187 2.695-1.781 4.531-1.781 1.696 0 3.133.594 4.313 1.781 1.176 1.18 1.766 2.617 1.766 4.313v125.28c-.125 1.712-.782 3.153-1.97 4.329-1.179 1.18-2.616 1.766-4.312 1.766Zm0 0"/></svg>