<svg xmlns="http://www.w3.org/2000/svg" width="3000" height="800" viewBox="0 0 2250 600"><defs><clipPath id="a"><path d="M22.168 263H58v74H22.168Zm0 0"/></clipPath><clipPath id="b"><path d="M260 2.41h36v595.293h-36Zm0 0"/></clipPath><clipPath id="c"><path d="M618 263h35.18v74H618Zm0 0"/></clipPath></defs><g clip-path="url(#a)"><path fill="#0a0c27" d="M39.71 263.613c-9.69 0-17.542 7.852-17.542 17.54v37.542c0 9.688 7.852 17.54 17.543 17.54 9.687 0 17.539-7.852 17.539-17.54v-37.543c.004-9.687-7.852-17.539-17.54-17.539m0 0"/></g><path fill="#0a0c27" d="M99.352 213.648c-9.692 0-17.543 7.852-17.543 17.54V368.66c0 9.688 7.851 17.54 17.543 17.54 9.687 0 17.539-7.852 17.539-17.54V231.191c0-9.691-7.852-17.543-17.54-17.543Zm59.636-89.656c-9.687 0-17.539 7.852-17.539 17.54v316.784c0 9.692 7.852 17.543 17.54 17.543 9.69 0 17.542-7.851 17.542-17.543V141.531c0-9.687-7.851-17.539-17.543-17.539m59.641 75.645c-9.691 0-17.543 7.851-17.543 17.539v165.496c0 9.687 7.851 17.539 17.543 17.539 9.687 0 17.539-7.852 17.539-17.54V217.177c.004-9.688-7.852-17.54-17.54-17.54Zm0 0"/><g clip-path="url(#b)"><path fill="#0a0c27" d="M278.27 2.645c-9.692 0-17.543 7.851-17.543 17.539v559.48c0 9.691 7.851 17.543 17.543 17.543 9.687 0 17.539-7.852 17.539-17.543V20.184c0-9.688-7.852-17.54-17.54-17.54Zm0 0"/></g><path fill="#0a0c27" d="M337.906 81.09c-9.687 0-17.539 7.851-17.539 17.543v402.586c0 9.687 7.852 17.539 17.54 17.539 9.69 0 17.538-7.852 17.538-17.54V98.634c0-9.692-7.847-17.543-17.539-17.543Zm59.641 131.973c-9.692 0-17.543 7.851-17.543 17.539v138.644c0 9.688 7.851 17.54 17.543 17.54 9.687 0 17.539-7.852 17.539-17.54V230.602c0-9.688-7.852-17.54-17.54-17.54Zm59.641-153.54c-9.692 0-17.543 7.852-17.543 17.543v445.715c0 9.692 7.851 17.543 17.543 17.543 9.687 0 17.539-7.851 17.539-17.543V77.066c0-9.687-7.852-17.543-17.54-17.543Zm59.636 68.657c-9.687 0-17.539 7.851-17.539 17.539v308.406c0 9.691 7.852 17.543 17.54 17.543s17.538-7.852 17.538-17.543V145.723c0-9.688-7.851-17.543-17.539-17.543m59.641 103.922c-9.692 0-17.543 7.851-17.543 17.539v100.566c0 9.688 7.851 17.54 17.543 17.54 9.687 0 17.539-7.852 17.539-17.54V249.641c0-9.688-7.852-17.54-17.54-17.54Zm0 0"/><g clip-path="url(#c)"><path fill="#0a0c27" d="M636.105 263.613c-9.69 0-17.543 7.852-17.543 17.54v37.542c0 9.688 7.852 17.54 17.543 17.54 9.688 0 17.54-7.852 17.54-17.54v-37.543c0-9.687-7.852-17.539-17.54-17.539m0 0"/></g><path fill="#0a0c27" d="M739.915 100.336h101.032c5.226 0 9.597 1.664 13.109 4.984q5.28 4.971 5.281 12.813 0 7.547-5.281 12.218-5.269 4.674-13.11 4.672h-84.453l2.72-5.125v58.797l-2.407-2.406h70.562q7.84.002 13.125 4.984 5.281 4.971 5.282 12.813c0 5.023-1.762 9.093-5.282 12.218-3.523 3.118-7.898 4.672-13.125 4.672h-69.656l1.5-2.422v60.922l-2.406-2.718h84.14q7.841 0 13.11 5.28 5.28 5.284 5.281 12.22c0 5.023-1.761 9.14-5.281 12.359q-5.269 4.828-13.11 4.828h-101.03q-7.846.002-13.126-5.281-5.266-5.28-5.265-13.11V118.742q0-7.84 5.265-13.125 5.28-5.28 13.125-5.281m349.52 219.547c4.219 0 8.133 1.757 11.75 5.28q5.437 5.281 5.437 12.22 0 6.935-6.187 13.109-6.187 6.188-15.844 11.016a102 102 0 0 1-20.047 7.53q-10.406 2.72-18.843 2.72-18.704 0-29.86-3.47c-7.437-2.312-13.57-4.929-18.39-7.843a379 379 0 0 0-13.579-7.828q-6.327-3.47-15.375-3.469-5.735-.001-9.203 1.953a124 124 0 0 1-7.547 3.922q-4.065 1.952-11.296 1.953c-5.032 0-9.258-1.914-12.672-5.734q-5.126-5.72-5.125-12.36 0-11.752 10.562-15.671l62.422-23.22 27.14 6.626-58.5 21.719 17.188-9.953q10.546-.002 18.531 3.156a140 140 0 0 1 15.235 7.094 156 156 0 0 0 14.937 7.078q7.687 3.17 17.64 3.172 8.14 0 13.72-2.72 5.577-2.705 9.812-6.015 5.121-3.924 9.188-7.094c2.718-2.117 5.687-3.171 8.906-3.171m-1.219-113.985q0 22.613-7.547 42.219-7.534 19.594-21.25 34.531-13.722 14.925-32.578 23.375-18.843 8.438-41.156 8.438c-22.313 0-28.547-2.813-41.016-8.438q-18.703-8.45-32.422-23.375-13.72-14.937-21.265-34.531c-5.024-13.07-7.531-27.145-7.531-42.219 0-15.082 2.507-29.156 7.53-42.219 5.032-13.07 12.118-24.582 21.266-34.53q13.719-14.937 32.422-23.376 18.703-8.451 41.016-8.453 22.313.002 41.156 8.453 18.856 8.439 32.578 23.375 13.716 14.926 21.25 34.531 7.547 19.595 7.547 42.22Zm-39.203 0q-.001-20.215-8.14-36.64-8.145-16.437-22.313-26.094-14.173-9.656-32.875-9.656-18.706 0-32.875 9.656c-9.45 6.437-16.84 15.086-22.172 25.937q-7.985 16.284-7.984 36.797-.001 20.205 7.984 36.64c5.332 10.962 12.723 19.657 22.172 26.095 9.445 6.43 20.406 9.64 32.875 9.64s23.426-3.21 32.875-9.64c9.445-6.438 16.883-15.133 22.312-26.094q8.14-16.437 8.141-36.64Zm222.547-105.859c5.227 0 9.454 1.762 12.672 5.281 3.22 3.523 4.828 7.89 4.828 13.11V227.6q-.001 25.032-10.718 44.344-10.705 19.3-29.407 30.156-18.69 10.861-43.421 10.86-24.721.001-43.579-10.86c-12.562-7.238-22.414-17.289-29.546-30.156q-10.705-19.312-10.704-44.344V118.43q-.002-7.826 5.422-13.109 5.421-5.28 13.875-5.281 6.938.001 12.516 5.281c3.719 3.523 5.578 7.89 5.578 13.11V227.6c0 10.055 2.16 18.75 6.484 26.094q6.481 11.003 17.188 17.031c7.133 4.024 14.723 6.032 22.766 6.032 8.644 0 16.687-2.008 24.125-6.032q11.156-6.028 18.093-17.031c4.625-7.344 6.938-16.039 6.938-26.094V118.43q0-7.826 4.515-13.109 4.53-5.28 12.375-5.281Zm100.408 193.015q-.002 7.83-5.735 13.11-5.718 5.283-13.265 5.281c-5.625 0-10.149-1.758-13.563-5.281q-5.126-5.28-5.125-13.11V118.742q-.002-7.84 5.422-13.125 5.421-5.28 13.875-5.281c4.82 0 9.094 1.761 12.813 5.28q5.578 5.287 5.578 13.126Zm132.396-192.718q15.668 0 29.39 9.047c9.157 6.03 16.547 14.18 22.172 24.437 5.625 10.25 8.438 21.711 8.438 34.375q0 18.703-8.438 34.078-8.437 15.377-22.172 24.578-13.722 9.204-29.39 9.203h-55.5l3.015-5.437v62.437q0 7.83-4.828 13.11-4.816 5.283-12.656 5.281-7.547.002-12.375-5.281-4.815-5.28-4.813-13.11V118.742q-.001-7.84 5.266-13.125 5.28-5.28 13.125-5.281Zm0 101.328q5.716.002 11.14-4.813 5.437-4.827 9.047-12.515c2.414-5.133 3.625-10.516 3.625-16.141q-.001-8.747-3.625-16.281-3.61-7.545-9.047-12.219-5.424-4.67-11.14-4.672h-56.094l3.61-5.422v76.89l-3.313-4.827ZM1686.2 100.336q15.668 0 29.39 9.047c9.157 6.03 16.548 14.18 22.173 24.437 5.625 10.25 8.437 21.711 8.437 34.375q0 18.703-8.437 34.078-8.438 15.377-22.172 24.578-13.724 9.204-29.39 9.203h-55.5l3.015-5.437v62.437q0 7.83-4.828 13.11-4.817 5.283-12.657 5.281-7.546.002-12.375-5.281-4.813-5.28-4.812-13.11V118.742q0-7.84 5.265-13.125 5.28-5.28 13.125-5.281Zm0 101.328q5.718.002 11.14-4.813 5.438-4.827 9.048-12.515c2.414-5.133 3.625-10.516 3.625-16.141q-.002-8.747-3.625-16.281-3.61-7.545-9.047-12.219-5.424-4.67-11.14-4.672h-56.095l3.61-5.422v76.89l-3.313-4.827Zm113.07-101.328h101.032c5.227 0 9.598 1.664 13.11 4.984q5.28 4.971 5.28 12.813 0 7.547-5.28 12.218-5.269 4.674-13.11 4.672h-84.453l2.719-5.125v58.797l-2.406-2.406h70.562q7.84.002 13.125 4.984 5.28 4.971 5.281 12.813c0 5.023-1.761 9.093-5.281 12.218-3.523 3.118-7.898 4.672-13.125 4.672h-69.656l1.5-2.422v60.922l-2.406-2.718h84.14q7.841 0 13.11 5.28 5.28 5.284 5.28 12.22c0 5.023-1.76 9.14-5.28 12.359q-5.269 4.828-13.11 4.828h-101.031q-7.846.002-13.125-5.281-5.267-5.28-5.266-13.11V118.742q-.001-7.84 5.266-13.125 5.28-5.28 13.125-5.281Zm244.567 0q21.717 0 38.594 8.156 16.887 8.143 28.5 22.766 11.608 14.626 17.484 33.78 5.89 19.145 5.891 40.86-.002 29.25-10.562 53.235-10.548 23.971-30.61 38.14-20.049 14.173-49.297 14.172h-72.078q-7.845.002-13.125-5.281-5.266-5.28-5.265-13.11V118.742q0-7.84 5.265-13.125 5.28-5.28 13.125-5.281Zm-3.015 176.422q18.997 0 31.062-9.797 12.061-9.797 17.64-25.922 5.58-16.138 5.579-35.14-.001-14.17-3.172-26.985-3.158-12.827-9.797-22.625-6.643-9.811-16.89-15.531c-6.836-3.82-14.977-5.735-24.422-5.735h-52.782l3.016-2.719v147.782l-1.812-3.328Zm145.938-31.969q-10.253 0-11.156-11.453l-8.75-110.985c-.398-6.226 1.266-11.453 4.984-15.672 3.72-4.226 8.594-6.343 14.625-6.343s10.953 2.117 14.766 6.343q5.732 6.331 4.844 15.672l-8.453 110.985q-.91 11.453-10.86 11.453m-2.11 66.656q-8.752.002-13.421-4.672-4.674-4.669-4.672-13.422v-5.125q-.002-8.746 4.672-13.422 4.669-4.67 13.422-4.671h3.922q8.746 0 13.422 4.671 4.67 4.675 4.671 13.422v5.125q0 8.753-4.671 13.422-4.676 4.674-13.422 4.672ZM729.573 392.421h75.734q2.466.001 4.328 1.766 1.86 1.753 1.86 4.437c0 1.781-.621 3.227-1.86 4.328q-1.862 1.658-4.328 1.657h-70.984l2.062-3.516v57.984l-2.265-2.687h61.89c1.657 0 3.102.62 4.344 1.86q1.859 1.861 1.86 4.327-.001 2.69-1.86 4.344c-1.242 1.094-2.687 1.64-4.344 1.64h-61.484l1.86-2.062v59.422l-1.032-1.234h69.953q2.466 0 4.328 1.859 1.86 1.862 1.86 4.328 0 2.69-1.86 4.344-1.862 1.64-4.328 1.64h-75.734c-1.649 0-3.09-.617-4.328-1.859-1.243-1.238-1.86-2.68-1.86-4.328V398.624c0-1.656.617-3.101 1.86-4.344q1.856-1.858 4.328-1.859m215.402-.203c1.926 0 3.473.555 4.64 1.656q1.749 1.658 1.75 4.125 0 1.441-.609 3.094l-55.093 131.64q-1.034 2.064-2.688 3.094-1.642 1.032-3.297 1.032-1.863 0-3.515-1.032a5.3 5.3 0 0 1-2.266-2.89l-54.875-131.422a24 24 0 0 1-.422-1.453 7.8 7.8 0 0 1-.203-1.86q-.001-2.67 1.953-4.328c1.313-1.101 2.656-1.656 4.031-1.656q4.325 0 6.188 4.547l51.594 123.375h-3.719l50.75-123.797q2.061-4.125 5.781-4.125m38.977.203h75.735q2.465.001 4.328 1.766 1.858 1.753 1.859 4.437c0 1.781-.621 3.227-1.86 4.328q-1.862 1.658-4.327 1.657h-70.985l2.063-3.516v57.984l-2.266-2.687h61.89c1.657 0 3.102.62 4.344 1.86q1.86 1.861 1.86 4.327 0 2.69-1.86 4.344c-1.242 1.094-2.687 1.64-4.343 1.64h-61.485l1.86-2.062v59.422l-1.032-1.234h69.954q2.465 0 4.328 1.859 1.858 1.862 1.859 4.328 0 2.69-1.86 4.344-1.862 1.64-4.327 1.64h-75.735c-1.648 0-3.09-.617-4.328-1.859q-1.862-1.856-1.86-4.328V398.624c0-1.656.618-3.101 1.86-4.344q1.856-1.858 4.328-1.859m216.637 0c1.789 0 3.203.555 4.234 1.656q1.548 1.658 1.547 4.125V530.25q0 3.112-1.969 4.86-1.956 1.75-4.421 1.75-1.253 0-2.688-.516-1.44-.516-2.266-1.547l-92.03-124 3.515-1.86V531.28c0 1.524-.555 2.836-1.656 3.938q-1.658 1.64-4.125 1.64-2.689 0-4.235-1.64-1.547-1.653-1.547-3.938V398.624c0-2.062.617-3.61 1.86-4.64q1.857-1.562 4.125-1.563c.82 0 1.71.18 2.672.531a4.5 4.5 0 0 1 2.28 1.75l91 122.563-2.077 3.703V398.202q-.001-2.467 1.75-4.125c1.175-1.101 2.52-1.656 4.03-1.656Zm87.474 144.438q-2.895.001-4.64-1.86-1.751-1.856-1.75-4.328V399.234h12.78V530.67q0 2.472-1.858 4.328-1.847 1.861-4.532 1.86Zm-49.11-132.672q-2.47 0-4.327-1.641-1.861-1.653-1.86-4.344-.002-2.467 1.86-4.125c1.238-1.101 2.68-1.656 4.328-1.656h98.219c1.644 0 3.086.555 4.328 1.656q1.859 1.658 1.86 4.328-.002 2.689-1.86 4.235-1.862 1.547-4.328 1.547Zm179.911 132.672q-2.895.001-4.64-1.86-1.752-1.856-1.75-4.328V399.234h12.78V530.67q0 2.472-1.859 4.328-1.846 1.861-4.531 1.86Zm-49.11-132.672q-2.471 0-4.328-1.641c-1.242-1.102-1.859-2.55-1.859-4.344 0-1.644.617-3.02 1.86-4.125 1.238-1.101 2.68-1.656 4.328-1.656h98.218c1.645 0 3.086.555 4.328 1.656q1.86 1.658 1.86 4.328 0 2.689-1.86 4.235-1.862 1.547-4.328 1.547Zm136.986-11.766h75.735q2.466.001 4.328 1.766 1.859 1.753 1.86 4.437c0 1.781-.622 3.227-1.86 4.328q-1.862 1.658-4.328 1.657h-70.985l2.063-3.516v57.984l-2.266-2.687h61.89c1.657 0 3.102.62 4.345 1.86q1.858 1.861 1.859 4.327 0 2.69-1.86 4.344c-1.242 1.094-2.687 1.64-4.343 1.64h-61.485l1.86-2.062v59.422l-1.031-1.234h69.953q2.466 0 4.328 1.859 1.859 1.862 1.86 4.328-.002 2.69-1.86 4.344-1.862 1.64-4.328 1.64h-75.735c-1.648 0-3.09-.617-4.328-1.859q-1.861-1.856-1.86-4.328V398.624c0-1.656.618-3.101 1.86-4.344q1.856-1.858 4.328-1.859m216.434 10.734q2.467 1.658 2.875 4.235.422 2.579-1.219 5.047-1.455 1.862-3.719 2.078a7.9 7.9 0 0 1-4.328-.828 68.4 68.4 0 0 0-16.828-8.047q-8.97-2.89-19.281-2.89-12.595 0-23.422 4.437-10.83 4.44-18.875 12.797-8.05 8.345-12.484 19.703-4.44 11.345-4.438 24.953-.002 14.034 4.531 25.484c3.032 7.637 7.258 14.203 12.688 19.703q8.154 8.252 18.875 12.594 10.733 4.33 23.125 4.328c6.738 0 13.098-.96 19.078-2.89q8.983-2.889 16.813-7.844 2.075-1.232 4.437-.922 2.374.314 3.828 2.375 1.857 2.267 1.328 4.844c-.343 1.718-1.273 3.062-2.78 4.03q-5.158 3.3-12.173 6.188-7.02 2.895-14.86 4.641a71.8 71.8 0 0 1-15.671 1.75q-14.86-.002-27.86-5.36-13-5.373-23.109-15.171-10.111-9.796-15.781-23.406-5.672-13.623-5.672-30.344-.002-16.091 5.563-29.61c3.718-9.007 8.879-16.812 15.484-23.406q9.903-9.902 23.11-15.469 13.2-5.577 28.265-5.578c7.832 0 15.395 1.102 22.687 3.297q10.936 3.3 19.813 9.281m35.892-10.734q2.465 0 4.422 1.86 1.968 1.863 1.968 4.546v131.64q-.203 2.674-2.171 4.532-1.957 1.861-4.422 1.86-2.893.001-4.657-1.86-1.751-1.858-1.75-4.531v-131.64q-.002-2.684 1.86-4.548 1.856-1.858 4.75-1.859m96.765 0q2.889 0 4.641 1.86c1.164 1.242 1.75 2.757 1.75 4.546v131.64q-.206 2.674-1.953 4.532-1.752 1.861-4.64 1.86-2.691.001-4.548-1.86c-1.242-1.238-1.859-2.75-1.859-4.531v-131.64c0-1.79.648-3.305 1.953-4.548q1.968-1.858 4.656-1.859m-97.796 64.594h98l-.204 11.969h-98.625Zm248.605-64.594c1.789 0 3.203.555 4.234 1.656q1.547 1.658 1.547 4.125V530.25q0 3.112-1.969 4.86-1.956 1.75-4.422 1.75-1.253 0-2.687-.516-1.44-.516-2.266-1.547l-92.031-124 3.516-1.86V531.28c0 1.524-.555 2.836-1.657 3.938q-1.658 1.64-4.125 1.64-2.688 0-4.234-1.64-1.547-1.653-1.547-3.938V398.624c0-2.062.617-3.61 1.86-4.64q1.857-1.562 4.124-1.563c.82 0 1.711.18 2.672.531a4.5 4.5 0 0 1 2.282 1.75l91 122.563-2.079 3.703V398.202q-.001-2.467 1.75-4.125c1.176-1.101 2.52-1.656 4.032-1.656m57.552 138.047q-.205 2.673-2.172 4.531-1.955 1.861-4.422 1.86-2.894.001-4.656-1.86-1.751-1.858-1.75-4.531v-131.64c0-1.79.617-3.305 1.86-4.548q1.856-1.858 4.75-1.859 2.466 0 4.421 1.86 1.97 1.863 1.97 4.546Zm141.749 7.219c-1.793 0-3.308-.758-4.547-2.266l-58.593-73.672 9.703-9.687 59 74.687q1.453 2.064 1.453 4.328-.001 3.316-2.375 4.969-2.38 1.64-4.64 1.64Zm-2.265-144.844q2.466 0 4.218 1.86 1.749 1.862 1.75 4.124-.002 2.472-1.843 4.328l-93.672 87.688-1.656-14.031 86.656-81.907q2.062-2.062 4.547-2.062m-94.5 144.016q-2.893.001-4.657-1.86-1.751-1.858-1.75-4.531v-131.64q-.002-2.684 1.86-4.548 1.856-1.858 4.75-1.859 2.67 0 4.531 1.86 1.858 1.863 1.86 4.546v131.64q-.206 2.674-2.063 4.532-1.861 1.861-4.531 1.86m0 0"/></svg>