<svg xmlns="http://www.w3.org/2000/svg" width="3000" height="800" version="1.0" viewBox="0 0 2250 600"><defs><clipPath id="a"><path d="M22.168 263H58v74H22.168Zm0 0"/></clipPath><clipPath id="b"><path d="M260 2.41h36v595.293h-36Zm0 0"/></clipPath><clipPath id="c"><path d="M618 263h35.18v74H618Zm0 0"/></clipPath></defs><g clip-path="url(#a)"><path fill="#fff" d="M39.71 263.613c-9.69 0-17.542 7.852-17.542 17.54v37.542c0 9.688 7.852 17.54 17.543 17.54 9.687 0 17.539-7.852 17.539-17.54v-37.543c.004-9.687-7.852-17.539-17.54-17.539Zm0 0"/></g><path fill="#fff" d="M99.352 213.648c-9.692 0-17.543 7.852-17.543 17.54V368.66c0 9.688 7.851 17.54 17.543 17.54 9.687 0 17.539-7.852 17.539-17.54V231.191c0-9.691-7.852-17.543-17.54-17.543ZM158.988 123.992c-9.687 0-17.539 7.852-17.539 17.54v316.784c0 9.692 7.852 17.543 17.54 17.543 9.69 0 17.542-7.851 17.542-17.543V141.531c0-9.687-7.851-17.539-17.543-17.539ZM218.629 199.637c-9.691 0-17.543 7.851-17.543 17.539v165.496c0 9.687 7.851 17.539 17.543 17.539 9.687 0 17.539-7.852 17.539-17.54V217.177c.004-9.688-7.852-17.54-17.54-17.54Zm0 0"/><g clip-path="url(#b)"><path fill="#fff" d="M278.27 2.645c-9.692 0-17.543 7.851-17.543 17.539v559.48c0 9.691 7.851 17.543 17.543 17.543 9.687 0 17.539-7.852 17.539-17.543V20.184c0-9.688-7.852-17.54-17.54-17.54Zm0 0"/></g><path fill="#fff" d="M337.906 81.09c-9.687 0-17.539 7.851-17.539 17.543v402.586c0 9.687 7.852 17.539 17.54 17.539 9.69 0 17.538-7.852 17.538-17.54V98.634c0-9.692-7.847-17.543-17.539-17.543ZM397.547 213.063c-9.692 0-17.543 7.851-17.543 17.539v138.644c0 9.688 7.851 17.54 17.543 17.54 9.687 0 17.539-7.852 17.539-17.54V230.602c0-9.688-7.852-17.54-17.54-17.54ZM457.188 59.523c-9.692 0-17.543 7.852-17.543 17.543v445.715c0 9.692 7.851 17.543 17.543 17.543 9.687 0 17.539-7.851 17.539-17.543V77.066c0-9.687-7.852-17.543-17.54-17.543ZM516.824 128.18c-9.687 0-17.539 7.851-17.539 17.539v308.406c0 9.691 7.852 17.543 17.54 17.543 9.687 0 17.538-7.852 17.538-17.543V145.723c0-9.688-7.851-17.543-17.539-17.543ZM576.465 232.102c-9.692 0-17.543 7.851-17.543 17.539v100.566c0 9.688 7.851 17.54 17.543 17.54 9.687 0 17.539-7.852 17.539-17.54V249.641c0-9.688-7.852-17.54-17.54-17.54Zm0 0"/><g clip-path="url(#c)"><path fill="#fff" d="M636.105 263.613c-9.69 0-17.543 7.852-17.543 17.54v37.542c0 9.688 7.852 17.54 17.543 17.54 9.688 0 17.54-7.852 17.54-17.54v-37.543c0-9.687-7.852-17.539-17.54-17.539Zm0 0"/></g><path fill="#fff" d="M739.915 100.336h101.032c5.226 0 9.597 1.664 13.109 4.984 3.52 3.313 5.281 7.586 5.281 12.813 0 5.03-1.761 9.105-5.281 12.218-3.512 3.117-7.883 4.672-13.11 4.672h-84.453l2.72-5.125v58.797l-2.407-2.406h70.562c5.227 0 9.602 1.664 13.125 4.984 3.52 3.313 5.282 7.586 5.282 12.813 0 5.023-1.762 9.093-5.282 12.218-3.523 3.118-7.898 4.672-13.125 4.672h-69.656l1.5-2.422v60.922l-2.406-2.718h84.14c5.227 0 9.598 1.761 13.11 5.28 3.52 3.524 5.281 7.595 5.281 12.22 0 5.023-1.761 9.14-5.281 12.359-3.512 3.219-7.883 4.828-13.11 4.828h-101.03c-5.231 0-9.606-1.758-13.126-5.281-3.511-3.52-5.265-7.89-5.265-13.11V118.742c0-5.227 1.754-9.602 5.265-13.125 3.52-3.52 7.895-5.281 13.125-5.281ZM1089.435 319.883c4.219 0 8.133 1.757 11.75 5.28 3.625 3.52 5.437 7.595 5.437 12.22 0 4.625-2.062 8.992-6.187 13.109-4.125 4.125-9.406 7.797-15.844 11.016a102.035 102.035 0 0 1-20.047 7.53c-6.937 1.813-13.218 2.72-18.843 2.72-12.47 0-22.422-1.157-29.86-3.47-7.437-2.312-13.57-4.929-18.39-7.843a378.759 378.759 0 0 0-13.579-7.828c-4.218-2.313-9.343-3.469-15.375-3.469-3.824 0-6.89.649-9.203 1.953a124.034 124.034 0 0 1-7.547 3.922c-2.71 1.301-6.476 1.953-11.296 1.953-5.032 0-9.258-1.914-12.672-5.734-3.418-3.813-5.125-7.934-5.125-12.36 0-7.835 3.52-13.058 10.562-15.671l62.422-23.22 27.14 6.626-58.5 21.719 17.188-9.953c7.031 0 13.207 1.05 18.531 3.156a140.365 140.365 0 0 1 15.235 7.094 155.968 155.968 0 0 0 14.937 7.078c5.125 2.113 11.004 3.172 17.64 3.172 5.427 0 10-.907 13.72-2.72 3.718-1.804 6.988-3.808 9.812-6.015 3.414-2.617 6.477-4.98 9.188-7.094 2.718-2.117 5.687-3.171 8.906-3.171Zm-1.219-113.985c0 15.074-2.515 29.149-7.547 42.219-5.023 13.062-12.105 24.574-21.25 34.531-9.148 9.95-20.008 17.742-32.578 23.375-12.562 5.625-26.281 8.438-41.156 8.438s-28.547-2.813-41.016-8.438c-12.468-5.633-23.277-13.426-32.422-23.375-9.148-9.957-16.234-21.469-21.265-34.531-5.024-13.07-7.531-27.145-7.531-42.219 0-15.082 2.507-29.156 7.53-42.219 5.032-13.07 12.118-24.582 21.266-34.53 9.145-9.958 19.954-17.75 32.422-23.376 12.469-5.633 26.14-8.453 41.016-8.453 14.875 0 28.594 2.82 41.156 8.453 12.57 5.625 23.43 13.418 32.578 23.375 9.145 9.95 16.227 21.461 21.25 34.531 5.032 13.063 7.547 27.137 7.547 42.22Zm-39.203 0c0-13.476-2.715-25.691-8.14-36.64-5.43-10.957-12.868-19.657-22.313-26.094-9.45-6.438-20.406-9.656-32.875-9.656-12.469 0-23.43 3.218-32.875 9.656-9.45 6.437-16.84 15.086-22.172 25.937-5.324 10.856-7.984 23.121-7.984 36.797 0 13.469 2.66 25.684 7.984 36.64 5.332 10.962 12.723 19.657 22.172 26.095 9.445 6.43 20.406 9.64 32.875 9.64 12.469 0 23.426-3.21 32.875-9.64 9.445-6.438 16.883-15.133 22.312-26.094 5.426-10.957 8.141-23.172 8.141-36.64ZM1271.56 100.039c5.227 0 9.454 1.762 12.672 5.281 3.22 3.523 4.828 7.89 4.828 13.11V227.6c0 16.688-3.574 31.469-10.718 44.344-7.137 12.867-16.938 22.918-29.407 30.156-12.46 7.242-26.933 10.86-43.421 10.86-16.48 0-31.008-3.618-43.579-10.86-12.562-7.238-22.414-17.289-29.546-30.156-7.137-12.875-10.704-27.656-10.704-44.344V118.43c0-5.218 1.805-9.586 5.422-13.109 3.614-3.52 8.239-5.281 13.875-5.281 4.625 0 8.797 1.762 12.516 5.281 3.719 3.523 5.578 7.89 5.578 13.11V227.6c0 10.055 2.16 18.75 6.484 26.094 4.32 7.336 10.051 13.012 17.188 17.031 7.133 4.024 14.723 6.032 22.766 6.032 8.644 0 16.687-2.008 24.125-6.032 7.437-4.02 13.468-9.695 18.093-17.031 4.625-7.344 6.938-16.039 6.938-26.094V118.43c0-5.218 1.504-9.586 4.515-13.109 3.02-3.52 7.145-5.281 12.375-5.281ZM1371.968 293.054c0 5.22-1.914 9.59-5.735 13.11-3.812 3.523-8.234 5.281-13.265 5.281-5.625 0-10.149-1.758-13.563-5.281-3.418-3.52-5.125-7.89-5.125-13.11V118.742c0-5.227 1.805-9.602 5.422-13.125 3.614-3.52 8.239-5.281 13.875-5.281 4.82 0 9.094 1.761 12.813 5.28 3.718 3.524 5.578 7.9 5.578 13.126ZM1504.364 100.336c10.445 0 20.242 3.015 29.39 9.047 9.157 6.03 16.547 14.18 22.172 24.437 5.625 10.25 8.438 21.711 8.438 34.375 0 12.469-2.813 23.828-8.438 34.078-5.625 10.25-13.015 18.445-22.172 24.578-9.148 6.137-18.945 9.203-29.39 9.203h-55.5l3.015-5.437v62.437c0 5.22-1.61 9.59-4.828 13.11-3.21 3.523-7.43 5.281-12.656 5.281-5.031 0-9.156-1.758-12.375-5.281-3.211-3.52-4.813-7.89-4.813-13.11V118.742c0-5.227 1.754-9.602 5.266-13.125 3.52-3.52 7.895-5.281 13.125-5.281Zm0 101.328c3.812 0 7.523-1.602 11.14-4.813 3.625-3.218 6.64-7.39 9.047-12.515 2.414-5.133 3.625-10.516 3.625-16.141 0-5.832-1.21-11.258-3.625-16.281-2.406-5.031-5.422-9.102-9.047-12.219-3.617-3.113-7.328-4.672-11.14-4.672h-56.094l3.61-5.422v76.89l-3.313-4.827ZM1686.2 100.336c10.445 0 20.242 3.015 29.39 9.047 9.157 6.03 16.548 14.18 22.173 24.437 5.625 10.25 8.437 21.711 8.437 34.375 0 12.469-2.812 23.828-8.437 34.078-5.625 10.25-13.016 18.445-22.172 24.578-9.149 6.137-18.946 9.203-29.39 9.203h-55.5l3.015-5.437v62.437c0 5.22-1.61 9.59-4.828 13.11-3.211 3.523-7.43 5.281-12.657 5.281-5.03 0-9.156-1.758-12.375-5.281-3.21-3.52-4.812-7.89-4.812-13.11V118.742c0-5.227 1.754-9.602 5.265-13.125 3.52-3.52 7.895-5.281 13.125-5.281Zm0 101.328c3.813 0 7.524-1.602 11.14-4.813 3.626-3.218 6.641-7.39 9.048-12.515 2.414-5.133 3.625-10.516 3.625-16.141 0-5.832-1.211-11.258-3.625-16.281-2.407-5.031-5.422-9.102-9.047-12.219-3.617-3.113-7.328-4.672-11.14-4.672h-56.095l3.61-5.422v76.89l-3.313-4.827ZM1799.27 100.336h101.032c5.227 0 9.598 1.664 13.11 4.984 3.52 3.313 5.28 7.586 5.28 12.813 0 5.03-1.76 9.105-5.28 12.218-3.512 3.117-7.883 4.672-13.11 4.672h-84.453l2.719-5.125v58.797l-2.406-2.406h70.562c5.227 0 9.602 1.664 13.125 4.984 3.52 3.313 5.281 7.586 5.281 12.813 0 5.023-1.761 9.093-5.281 12.218-3.523 3.118-7.898 4.672-13.125 4.672h-69.656l1.5-2.422v60.922l-2.406-2.718h84.14c5.227 0 9.598 1.761 13.11 5.28 3.52 3.524 5.28 7.595 5.28 12.22 0 5.023-1.76 9.14-5.28 12.359-3.512 3.219-7.883 4.828-13.11 4.828h-101.031c-5.23 0-9.606-1.758-13.125-5.281-3.512-3.52-5.266-7.89-5.266-13.11V118.742c0-5.227 1.754-9.602 5.266-13.125 3.52-3.52 7.894-5.281 13.125-5.281ZM2043.837 100.336c14.477 0 27.344 2.718 38.594 8.156 11.258 5.43 20.758 13.016 28.5 22.766 7.738 9.75 13.567 21.011 17.484 33.78 3.926 12.763 5.891 26.384 5.891 40.86 0 19.5-3.523 37.246-10.562 53.235-7.032 15.98-17.235 28.695-30.61 38.14-13.367 9.45-29.797 14.172-49.297 14.172h-72.078c-5.23 0-9.605-1.758-13.125-5.281-3.511-3.52-5.265-7.89-5.265-13.11V118.742c0-5.227 1.754-9.602 5.265-13.125 3.52-3.52 7.895-5.281 13.125-5.281Zm-3.015 176.422c12.664 0 23.02-3.266 31.062-9.797 8.04-6.532 13.922-15.172 17.64-25.922 3.72-10.758 5.579-22.473 5.579-35.14 0-9.446-1.059-18.442-3.172-26.985-2.105-8.551-5.371-16.094-9.797-22.625-4.43-6.54-10.058-11.719-16.89-15.531-6.836-3.82-14.977-5.735-24.422-5.735h-52.782l3.016-2.719v147.782l-1.812-3.328ZM2186.76 244.789c-6.836 0-10.554-3.817-11.156-11.453l-8.75-110.985c-.398-6.226 1.266-11.453 4.984-15.672 3.72-4.226 8.594-6.343 14.625-6.343 6.032 0 10.953 2.117 14.766 6.343 3.82 4.22 5.437 9.446 4.844 15.672l-8.453 110.985c-.606 7.636-4.227 11.453-10.86 11.453Zm-2.11 66.656c-5.835 0-10.308-1.555-13.421-4.672-3.117-3.113-4.672-7.586-4.672-13.422v-5.125c0-5.832 1.555-10.304 4.672-13.422 3.113-3.113 7.586-4.671 13.422-4.671h3.922c5.832 0 10.304 1.558 13.422 4.671 3.113 3.118 4.671 7.59 4.671 13.422v5.125c0 5.836-1.558 10.309-4.671 13.422-3.118 3.117-7.59 4.672-13.422 4.672ZM729.573 392.421h75.734c1.645 0 3.086.59 4.328 1.766 1.239 1.168 1.86 2.648 1.86 4.437 0 1.781-.621 3.227-1.86 4.328-1.242 1.106-2.683 1.657-4.328 1.657h-70.984l2.062-3.516v57.984l-2.265-2.687h61.89c1.657 0 3.102.62 4.344 1.86 1.238 1.241 1.86 2.683 1.86 4.327 0 1.793-.622 3.242-1.86 4.344-1.242 1.094-2.687 1.64-4.344 1.64h-61.484l1.86-2.062v59.422l-1.032-1.234h69.953c1.645 0 3.086.62 4.328 1.859 1.239 1.242 1.86 2.684 1.86 4.328 0 1.793-.621 3.242-1.86 4.344-1.242 1.094-2.683 1.64-4.328 1.64h-75.734c-1.649 0-3.09-.617-4.328-1.859-1.243-1.238-1.86-2.68-1.86-4.328V398.624c0-1.656.617-3.101 1.86-4.344 1.238-1.238 2.68-1.859 4.328-1.859ZM944.975 392.218c1.926 0 3.473.555 4.64 1.656 1.165 1.106 1.75 2.48 1.75 4.125 0 .961-.202 1.992-.609 3.094l-55.093 131.64c-.688 1.376-1.586 2.407-2.688 3.094-1.094.688-2.195 1.032-3.297 1.032-1.242 0-2.414-.344-3.515-1.032a5.29 5.29 0 0 1-2.266-2.89l-54.875-131.422a23.966 23.966 0 0 1-.422-1.453 7.746 7.746 0 0 1-.203-1.86c0-1.781.649-3.222 1.953-4.328 1.313-1.101 2.656-1.656 4.031-1.656 2.883 0 4.946 1.516 6.188 4.547l51.594 123.375h-3.719l50.75-123.797c1.375-2.75 3.3-4.125 5.781-4.125ZM983.952 392.421h75.735c1.644 0 3.085.59 4.328 1.766 1.238 1.168 1.859 2.648 1.859 4.437 0 1.781-.621 3.227-1.86 4.328-1.242 1.106-2.683 1.657-4.327 1.657h-70.985l2.063-3.516v57.984l-2.266-2.687h61.89c1.657 0 3.102.62 4.344 1.86 1.239 1.241 1.86 2.683 1.86 4.327 0 1.793-.621 3.242-1.86 4.344-1.242 1.094-2.687 1.64-4.343 1.64h-61.485l1.86-2.062v59.422l-1.032-1.234h69.954c1.644 0 3.085.62 4.328 1.859 1.238 1.242 1.859 2.684 1.859 4.328 0 1.793-.621 3.242-1.86 4.344-1.242 1.094-2.683 1.64-4.327 1.64h-75.735c-1.648 0-3.09-.617-4.328-1.859-1.242-1.238-1.86-2.68-1.86-4.328V398.624c0-1.656.618-3.101 1.86-4.344 1.238-1.238 2.68-1.859 4.328-1.859ZM1200.589 392.421c1.789 0 3.203.555 4.234 1.656 1.032 1.106 1.547 2.48 1.547 4.125V530.25c0 2.074-.656 3.695-1.969 4.86-1.304 1.167-2.777 1.75-4.421 1.75-.836 0-1.73-.172-2.688-.516-.96-.344-1.715-.86-2.266-1.547l-92.03-124 3.515-1.86V531.28c0 1.524-.555 2.836-1.656 3.938-1.106 1.094-2.48 1.64-4.125 1.64-1.793 0-3.204-.546-4.235-1.64-1.031-1.102-1.547-2.414-1.547-3.938V398.624c0-2.062.617-3.61 1.86-4.64 1.238-1.04 2.613-1.563 4.125-1.563.82 0 1.71.18 2.672.531a4.49 4.49 0 0 1 2.28 1.75l91 122.563-2.077 3.703V398.202c0-1.644.582-3.02 1.75-4.125 1.175-1.101 2.52-1.656 4.03-1.656ZM1288.063 536.859c-1.93 0-3.476-.618-4.64-1.86-1.168-1.238-1.75-2.68-1.75-4.328V399.234h12.78V530.67c0 1.648-.62 3.09-1.858 4.328-1.23 1.242-2.743 1.86-4.532 1.86Zm-49.11-132.672c-1.647 0-3.089-.547-4.327-1.641-1.242-1.102-1.86-2.55-1.86-4.344 0-1.644.618-3.02 1.86-4.125 1.238-1.101 2.68-1.656 4.328-1.656h98.219c1.644 0 3.086.555 4.328 1.656 1.238 1.106 1.86 2.547 1.86 4.328 0 1.793-.622 3.204-1.86 4.235-1.242 1.031-2.684 1.547-4.328 1.547ZM1418.864 536.859c-1.93 0-3.477-.618-4.64-1.86-1.169-1.238-1.75-2.68-1.75-4.328V399.234h12.78V530.67c0 1.648-.62 3.09-1.859 4.328-1.23 1.242-2.742 1.86-4.531 1.86Zm-49.11-132.672c-1.648 0-3.09-.547-4.328-1.641-1.242-1.102-1.859-2.55-1.859-4.344 0-1.644.617-3.02 1.86-4.125 1.238-1.101 2.68-1.656 4.328-1.656h98.218c1.645 0 3.086.555 4.328 1.656 1.239 1.106 1.86 2.547 1.86 4.328 0 1.793-.621 3.204-1.86 4.235-1.242 1.031-2.683 1.547-4.328 1.547ZM1506.74 392.421h75.735c1.644 0 3.086.59 4.328 1.766 1.238 1.168 1.86 2.648 1.86 4.437 0 1.781-.622 3.227-1.86 4.328-1.242 1.106-2.684 1.657-4.328 1.657h-70.985l2.063-3.516v57.984l-2.266-2.687h61.89c1.657 0 3.102.62 4.345 1.86 1.238 1.241 1.859 2.683 1.859 4.327 0 1.793-.621 3.242-1.86 4.344-1.242 1.094-2.687 1.64-4.343 1.64h-61.485l1.86-2.062v59.422l-1.031-1.234h69.953c1.644 0 3.086.62 4.328 1.859 1.238 1.242 1.86 2.684 1.86 4.328 0 1.793-.622 3.242-1.86 4.344-1.242 1.094-2.684 1.64-4.328 1.64h-75.735c-1.648 0-3.09-.617-4.328-1.859-1.242-1.238-1.86-2.68-1.86-4.328V398.624c0-1.656.618-3.101 1.86-4.344 1.238-1.238 2.68-1.859 4.328-1.859ZM1723.174 403.155c1.645 1.106 2.602 2.516 2.875 4.235.281 1.719-.125 3.402-1.219 5.047-.969 1.242-2.21 1.933-3.719 2.078a7.906 7.906 0 0 1-4.328-.828 68.35 68.35 0 0 0-16.828-8.047c-5.98-1.926-12.406-2.89-19.281-2.89-8.398 0-16.203 1.48-23.422 4.437-7.219 2.96-13.512 7.226-18.875 12.797-5.367 5.562-9.527 12.132-12.484 19.703-2.961 7.562-4.438 15.882-4.438 24.953 0 9.355 1.508 17.851 4.531 25.484 3.032 7.637 7.258 14.203 12.688 19.703 5.437 5.5 11.727 9.7 18.875 12.594 7.156 2.887 14.863 4.328 23.125 4.328 6.738 0 13.098-.96 19.078-2.89 5.988-1.926 11.594-4.54 16.813-7.844 1.382-.82 2.863-1.13 4.437-.922 1.582.21 2.86 1 3.828 2.375 1.239 1.512 1.68 3.125 1.328 4.844-.343 1.718-1.273 3.062-2.78 4.03-3.438 2.2-7.497 4.263-12.173 6.188-4.68 1.93-9.633 3.477-14.86 4.641a71.811 71.811 0 0 1-15.671 1.75c-9.906 0-19.195-1.789-27.86-5.36-8.667-3.581-16.37-8.64-23.109-15.171-6.742-6.531-12-14.332-15.781-23.406-3.781-9.083-5.672-19.196-5.672-30.344 0-10.727 1.852-20.598 5.563-29.61 3.718-9.007 8.879-16.812 15.484-23.406 6.602-6.601 14.305-11.758 23.11-15.469 8.8-3.718 18.222-5.578 28.265-5.578 7.832 0 15.395 1.102 22.687 3.297 7.29 2.2 13.895 5.293 19.813 9.281ZM1759.066 392.421c1.644 0 3.117.621 4.422 1.86 1.312 1.242 1.968 2.757 1.968 4.546v131.64c-.136 1.782-.859 3.294-2.171 4.532-1.305 1.242-2.778 1.86-4.422 1.86-1.93 0-3.48-.618-4.657-1.86-1.168-1.238-1.75-2.75-1.75-4.531v-131.64c0-1.79.618-3.305 1.86-4.548 1.238-1.238 2.82-1.859 4.75-1.859Zm96.765 0c1.926 0 3.473.621 4.641 1.86 1.164 1.242 1.75 2.757 1.75 4.546v131.64c-.137 1.782-.789 3.294-1.953 4.532-1.168 1.242-2.715 1.86-4.64 1.86-1.794 0-3.31-.618-4.548-1.86-1.242-1.238-1.859-2.75-1.859-4.531v-131.64c0-1.79.648-3.305 1.953-4.548 1.313-1.238 2.863-1.859 4.656-1.859Zm-97.796 64.594h98l-.204 11.969h-98.625ZM2006.64 392.421c1.789 0 3.203.555 4.234 1.656 1.031 1.106 1.547 2.48 1.547 4.125V530.25c0 2.074-.656 3.695-1.969 4.86-1.305 1.167-2.777 1.75-4.422 1.75-.836 0-1.73-.172-2.687-.516-.961-.344-1.715-.86-2.266-1.547l-92.031-124 3.516-1.86V531.28c0 1.524-.555 2.836-1.657 3.938-1.105 1.094-2.48 1.64-4.125 1.64-1.793 0-3.203-.546-4.234-1.64-1.031-1.102-1.547-2.414-1.547-3.938V398.624c0-2.062.617-3.61 1.86-4.64 1.238-1.04 2.613-1.563 4.124-1.563.82 0 1.711.18 2.672.531a4.49 4.49 0 0 1 2.282 1.75l91 122.563-2.079 3.703V398.202c0-1.644.582-3.02 1.75-4.125 1.176-1.101 2.52-1.656 4.032-1.656ZM2064.192 530.468c-.137 1.781-.86 3.293-2.172 4.531-1.304 1.242-2.777 1.86-4.422 1.86-1.93 0-3.48-.618-4.656-1.86-1.168-1.238-1.75-2.75-1.75-4.531v-131.64c0-1.79.617-3.305 1.86-4.548 1.238-1.238 2.82-1.859 4.75-1.859 1.644 0 3.117.621 4.421 1.86 1.313 1.242 1.97 2.757 1.97 4.546ZM2205.941 537.687c-1.793 0-3.308-.758-4.547-2.266l-58.593-73.672 9.703-9.687 59 74.687c.969 1.375 1.453 2.82 1.453 4.328 0 2.211-.793 3.867-2.375 4.969-1.586 1.094-3.133 1.64-4.64 1.64Zm-2.265-144.844c1.644 0 3.05.621 4.218 1.86 1.165 1.241 1.75 2.616 1.75 4.124 0 1.649-.617 3.09-1.843 4.328l-93.672 87.688-1.656-14.031 86.656-81.907c1.375-1.375 2.89-2.062 4.547-2.062Zm-94.5 144.016c-1.93 0-3.48-.618-4.657-1.86-1.168-1.238-1.75-2.75-1.75-4.531v-131.64c0-1.79.618-3.305 1.86-4.548 1.238-1.238 2.82-1.859 4.75-1.859 1.781 0 3.289.621 4.531 1.86 1.238 1.242 1.86 2.757 1.86 4.546v131.64c-.137 1.782-.825 3.294-2.063 4.532-1.242 1.242-2.75 1.86-4.531 1.86Zm0 0"/></svg>