<svg xmlns="http://www.w3.org/2000/svg" width="3000" height="3000" viewBox="0 0 2250 2250"><defs><clipPath id="a"><path d="M.5 0h2249v2249H.5Zm0 0"/></clipPath><clipPath id="b"><path d="M75.32 1089H109v71H75.32Zm0 0"/></clipPath><clipPath id="c"><path d="M302 841.25h34v566.605h-34Zm0 0"/></clipPath><clipPath id="d"><path d="M642 1089h33.918v71H642Zm0 0"/></clipPath></defs><g fill="#fff" clip-path="url(#a)"><path d="M.5 0h2249v2249H.5Zm0 0"/><path d="M.5 0h2249v2249H.5Zm0 0"/></g><g clip-path="url(#b)"><path d="M92.004 1089.945c-9.215 0-16.684 7.473-16.684 16.7v35.742c0 9.226 7.47 16.699 16.684 16.699s16.68-7.473 16.68-16.7v-35.741c.004-9.223-7.465-16.7-16.68-16.7m0 0"/></g><path d="M148.727 1042.371c-9.215 0-16.684 7.477-16.684 16.703v130.883c0 9.227 7.469 16.703 16.684 16.703s16.683-7.476 16.683-16.7v-130.886c0-9.222-7.469-16.703-16.683-16.703m56.723-85.359c-9.216 0-16.684 7.472-16.684 16.699v301.613c0 9.223 7.468 16.7 16.683 16.7s16.684-7.477 16.684-16.7V973.711c0-9.227-7.469-16.7-16.684-16.7Zm56.722 72.019c-9.215 0-16.684 7.477-16.684 16.7v157.57c0 9.222 7.469 16.699 16.684 16.699s16.683-7.477 16.683-16.7v-157.57c0-9.222-7.468-16.699-16.683-16.699m0 0"/><g clip-path="url(#c)"><path d="M318.895 841.473c-9.215 0-16.68 7.476-16.68 16.703v532.683c0 9.227 7.465 16.7 16.68 16.7 9.218 0 16.683-7.473 16.683-16.7V858.176c0-9.227-7.465-16.703-16.683-16.703m0 0"/></g><path d="M375.617 916.164c-9.215 0-16.68 7.477-16.68 16.7v383.304c0 9.227 7.465 16.7 16.68 16.7 9.219 0 16.684-7.473 16.684-16.7V932.863c0-9.222-7.465-16.699-16.684-16.699m56.723 125.652c-9.215 0-16.68 7.477-16.68 16.7v132.004c0 9.222 7.465 16.699 16.68 16.699s16.683-7.477 16.683-16.7v-132.003c.004-9.223-7.468-16.7-16.683-16.7m56.726-146.183c-9.214 0-16.683 7.472-16.683 16.699v424.367c0 9.227 7.469 16.703 16.683 16.703 9.215 0 16.684-7.476 16.684-16.703V912.332c0-9.223-7.469-16.7-16.684-16.7ZM545.79 961c-9.216 0-16.685 7.473-16.685 16.7v293.632c0 9.227 7.47 16.7 16.684 16.7s16.684-7.473 16.684-16.7V977.699c0-9.222-7.47-16.699-16.684-16.699Zm56.722 98.941c-9.215 0-16.684 7.477-16.684 16.7v95.75c0 9.226 7.469 16.699 16.684 16.699s16.683-7.473 16.683-16.7v-95.75c0-9.222-7.468-16.699-16.683-16.699m0 0"/><g clip-path="url(#d)"><path d="M659.234 1089.945c-9.214 0-16.68 7.473-16.68 16.7v35.742c0 9.226 7.466 16.699 16.68 16.699 9.215 0 16.684-7.473 16.684-16.7v-35.741c0-9.223-7.469-16.7-16.684-16.7m0 0"/></g><path d="M758.467 934.456h96.171c4.97 0 9.125 1.586 12.47 4.75 3.35 3.156 5.03 7.219 5.03 12.188 0 4.78-1.68 8.656-5.03 11.625q-5.016 4.452-12.47 4.453h-80.375l2.579-4.875v55.969l-2.297-2.297h67.172c4.976 0 9.14 1.578 12.484 4.734 3.351 3.156 5.031 7.227 5.031 12.203 0 4.781-1.68 8.656-5.031 11.625-3.344 2.969-7.508 4.453-12.484 4.453h-66.313l1.438-2.297v57.985l-2.297-2.594h80.093c4.97 0 9.125 1.68 12.47 5.031 3.35 3.344 5.03 7.219 5.03 11.625 0 4.782-1.68 8.703-5.03 11.766q-5.016 4.593-12.47 4.594h-96.171q-7.456 0-12.485-5.016-5.016-5.029-5.015-12.5V951.972q0-7.466 5.015-12.485 5.03-5.028 12.485-5.03Zm332.675 208.969q6.03 0 11.187 5.016c3.446 3.351 5.172 7.234 5.172 11.64q-.001 6.591-5.89 12.485-5.876 5.889-15.063 10.484a97.5 97.5 0 0 1-19.094 7.172q-9.891 2.578-17.937 2.578c-11.867 0-21.34-1.102-28.422-3.297-7.074-2.2-12.906-4.687-17.5-7.469a365 365 0 0 0-12.922-7.468q-6.017-3.299-14.64-3.297-5.457-.002-8.75 1.859a119 119 0 0 1-7.172 3.734q-3.877 1.875-10.766 1.875c-4.781 0-8.805-1.82-12.062-5.453q-4.875-5.454-4.875-11.765-.001-11.206 10.046-14.938l59.422-22.094 25.828 6.313-55.687 20.672 16.36-9.469q10.043 0 17.656 3a133 133 0 0 1 14.5 6.75 150 150 0 0 0 14.203 6.75c4.882 2.008 10.484 3.016 16.797 3.016 5.164 0 9.52-.868 13.062-2.594 3.54-1.719 6.648-3.633 9.328-5.734q4.873-3.74 8.75-6.75 3.874-3.017 8.469-3.016m-1.14-108.5c0 14.355-2.4 27.75-7.188 40.187-4.781 12.438-11.528 23.399-20.235 32.875q-13.065 14.205-31 22.25-17.938 8.03-39.171 8.032c-14.168 0-27.184-2.68-39.047-8.032q-17.8-8.045-30.86-22.25-13.064-14.216-20.234-32.875-7.172-18.655-7.172-40.187 0-21.53 7.172-40.188 7.17-18.655 20.234-32.859 13.06-14.216 30.86-22.25 17.795-8.03 39.047-8.031c14.156 0 27.21 2.68 39.171 8.031q17.935 8.034 31 22.25 13.062 14.203 20.235 32.86 7.185 18.657 7.187 40.187Zm-37.313 0q-.001-19.23-7.766-34.875-7.752-15.64-21.234-24.828-13.487-9.188-31.281-9.188c-11.868 0-22.297 3.063-31.297 9.188q-13.49 9.188-21.094 24.687-7.61 15.504-7.61 35.016 0 19.237 7.61 34.875c5.07 10.43 12.101 18.703 21.094 24.828q13.498 9.188 31.297 9.188 17.794 0 31.28-9.188c8.99-6.125 16.067-14.398 21.235-24.828q7.765-15.638 7.766-34.875m211.809-100.75c4.977 0 9 1.68 12.063 5.031q4.593 5.018 4.593 12.485v103.906q0 23.828-10.203 42.203-10.189 18.362-27.984 28.703c-11.867 6.887-25.64 10.328-41.328 10.328q-23.532.001-41.485-10.328-17.94-10.34-28.125-28.703-10.188-18.375-10.187-42.203V951.69q0-7.467 5.156-12.485c3.445-3.351 7.852-5.031 13.219-5.031 4.394 0 8.363 1.68 11.906 5.031q5.312 5.018 5.313 12.485v103.906c0 9.562 2.054 17.84 6.171 24.828q6.17 10.47 16.36 16.219 10.185 5.735 21.672 5.734 12.34.001 22.953-5.734 10.622-5.748 17.219-16.22 6.609-10.482 6.609-24.827V951.69q0-7.467 4.312-12.485c2.875-3.351 6.797-5.031 11.766-5.031Zm95.568 183.703q-.002 7.471-5.453 12.5-5.455 5.016-12.625 5.016-8.049 0-12.922-5.016-4.875-5.029-4.875-12.5V951.972q0-7.466 5.156-12.485 5.168-5.028 13.219-5.03 6.873.002 12.187 5.03 5.312 5.018 5.313 12.485Zm126.008-183.422q14.919 0 27.985 8.625 13.06 8.613 21.094 23.25 8.045 14.625 8.046 32.719 0 17.801-8.046 32.437-8.034 14.643-21.094 23.391c-8.711 5.836-18.04 8.75-27.985 8.75h-52.812l2.86-5.156v59.406q0 7.471-4.594 12.5-4.582 5.016-12.047 5.016-7.172 0-11.766-5.016-4.594-5.029-4.594-12.5V951.972q0-7.466 5.016-12.485c3.351-3.351 7.516-5.03 12.484-5.03Zm0 96.453q5.451 0 10.61-4.593 5.168-4.595 8.61-11.907 3.451-7.325 3.452-15.36 0-8.326-3.453-15.5-3.44-7.182-8.61-11.624c-3.437-2.969-6.976-4.453-10.609-4.453h-53.39l3.437-5.172v73.203l-3.156-4.594Zm173.073-96.453q14.919 0 27.985 8.625 13.06 8.613 21.093 23.25 8.046 14.625 8.047 32.719 0 17.801-8.047 32.437-8.032 14.643-21.093 23.391c-8.711 5.836-18.04 8.75-27.985 8.75h-52.812l2.86-5.156v59.406q0 7.471-4.595 12.5-4.582 5.016-12.046 5.016-7.173 0-11.766-5.016-4.594-5.029-4.594-12.5V951.972q0-7.466 5.016-12.485 5.029-5.028 12.484-5.03Zm0 96.453q5.451 0 10.61-4.593 5.168-4.595 8.61-11.907 3.451-7.325 3.452-15.36 0-8.326-3.453-15.5-3.44-7.182-8.61-11.624c-3.437-2.969-6.976-4.453-10.609-4.453h-53.39l3.437-5.172v73.203l-3.156-4.594Zm107.62-96.453h96.172c4.969 0 9.125 1.586 12.469 4.75 3.351 3.156 5.031 7.219 5.031 12.188 0 4.78-1.68 8.656-5.031 11.625q-5.016 4.452-12.469 4.453h-80.375l2.578-4.875v55.969l-2.297-2.297h67.172q7.467 0 12.485 4.734c3.351 3.156 5.03 7.227 5.03 12.203q-.002 7.171-5.03 11.625-5.018 4.453-12.485 4.453h-66.312l1.437-2.297v57.985l-2.297-2.594h80.094c4.969 0 9.125 1.68 12.469 5.031 3.351 3.344 5.031 7.219 5.031 11.625 0 4.782-1.68 8.703-5.031 11.766q-5.016 4.593-12.469 4.594h-96.172c-4.969 0-9.133-1.672-12.484-5.016q-5.016-5.029-5.016-12.5V951.972q0-7.466 5.016-12.485 5.029-5.028 12.484-5.03Zm232.785 0c13.781 0 26.023 2.586 36.734 7.75q16.076 7.75 27.125 21.672 11.061 13.922 16.657 32.156 5.591 18.222 5.593 38.89-.001 27.845-10.047 50.673-10.05 22.814-29.14 36.312-19.079 13.486-46.922 13.485h-68.61q-7.454 0-12.484-5.016-5.015-5.029-5.015-12.5V951.972q0-7.466 5.015-12.485 5.03-5.028 12.485-5.03Zm-2.875 167.922q18.091 0 29.562-9.328 11.484-9.328 16.797-24.672 5.311-15.358 5.313-33.453-.002-13.482-3.016-25.688c-2.012-8.132-5.12-15.312-9.328-21.53q-6.316-9.328-16.078-14.782-9.75-5.451-23.25-5.453h-50.234l2.875-2.578v140.64l-1.72-3.156Zm138.923-30.422q-9.77.002-10.626-10.906l-8.328-105.64q-.58-8.89 4.734-14.923 5.31-6.03 13.922-6.03 8.608 0 14.063 6.03 5.466 6.034 4.594 14.922l-8.032 105.64c-.574 7.274-4.015 10.907-10.328 10.907Zm-2.016 63.438q-8.33 0-12.782-4.453-4.439-4.453-4.437-12.766v-4.89c0-5.54 1.476-9.798 4.437-12.766 2.97-2.97 7.227-4.453 12.782-4.453h3.734q8.325 0 12.766 4.453c2.968 2.968 4.453 7.226 4.453 12.765v4.89q0 8.315-4.453 12.767-4.44 4.452-12.766 4.453Zm-1384.956 77.081h72.079q2.355 0 4.125 1.672 1.764 1.675 1.765 4.218-.001 2.565-1.765 4.141-1.77 1.564-4.125 1.563h-67.563l1.969-3.344v55.187l-2.156-2.562h58.906q2.355 0 4.125 1.781 1.764 1.77 1.765 4.125-.001 2.55-1.765 4.125-1.77 1.564-4.125 1.563h-58.516l1.766-1.97v56.563l-.985-1.187h66.579q2.355 0 4.125 1.781 1.764 1.77 1.765 4.125-.001 2.55-1.765 4.125-1.77 1.564-4.125 1.563h-72.079c-1.562 0-2.937-.586-4.125-1.766-1.18-1.176-1.765-2.55-1.765-4.125v-125.688q-.002-2.342 1.765-4.109 1.782-1.78 4.125-1.781m205.021-.188q2.748.001 4.406 1.578 1.67 1.566 1.672 3.922-.002 1.378-.578 2.938l-52.438 125.297q-.985 1.955-2.562 2.937-1.565.985-3.125.985-1.783 0-3.36-.985a4.96 4.96 0 0 1-2.14-2.75l-52.234-125.094a15 15 0 0 1-.407-1.359 7.8 7.8 0 0 1-.187-1.781c0-1.695.617-3.067 1.86-4.11q1.873-1.577 3.827-1.578 4.123 0 5.89 4.313l49.095 117.437h-3.532l48.313-117.828q1.967-3.92 5.5-3.922m37.099.188h72.078q2.356 0 4.125 1.672 1.765 1.675 1.766 4.218-.001 2.565-1.766 4.141-1.77 1.564-4.125 1.563h-67.562l1.969-3.344v55.187l-2.157-2.562h58.907q2.355 0 4.125 1.781 1.764 1.77 1.765 4.125-.001 2.55-1.765 4.125-1.77 1.564-4.125 1.563h-58.516l1.766-1.97v56.563l-.985-1.187h66.578q2.356 0 4.125 1.781 1.765 1.77 1.766 4.125-.001 2.55-1.766 4.125-1.77 1.564-4.125 1.563h-72.078c-1.562 0-2.937-.586-4.125-1.766-1.18-1.176-1.765-2.55-1.765-4.125v-125.688c0-1.562.585-2.93 1.765-4.109q1.782-1.78 4.125-1.781m206.192 0q2.561 0 4.032 1.578c.976 1.043 1.469 2.352 1.469 3.922v125.687q0 2.94-1.875 4.61-1.864 1.674-4.22 1.672c-.78 0-1.632-.16-2.546-.485q-1.377-.499-2.156-1.484l-87.578-118.016 3.328-1.765v116.453q-.002 2.156-1.578 3.734-1.566 1.564-3.922 1.563-2.55 0-4.032-1.563-1.469-1.577-1.468-3.734v-126.282q-.002-2.935 1.765-4.406 1.782-1.483 3.938-1.484 1.17.001 2.547.5a4.2 4.2 0 0 1 2.156 1.672l86.61 116.64-1.97 3.532v-116.844c0-1.57.555-2.88 1.672-3.922q1.671-1.576 3.829-1.578Zm83.268 137.469q-2.753.002-4.422-1.766-1.674-1.763-1.672-4.125v-125.094h12.172v125.094q-.001 2.362-1.766 4.125-1.77 1.768-4.312 1.766m-46.75-126.266q-2.345 0-4.125-1.563c-1.18-1.05-1.766-2.43-1.766-4.14 0-1.57.586-2.88 1.766-3.922q1.78-1.576 4.125-1.578h93.484q2.355 0 4.125 1.578 1.765 1.564 1.766 4.125-.001 2.55-1.766 4.031-1.77 1.47-4.125 1.469Zm171.246 126.266q-2.753.002-4.421-1.766c-1.118-1.176-1.672-2.55-1.672-4.125v-125.094h12.172v125.094q-.001 2.362-1.766 4.125-1.77 1.768-4.313 1.766m-46.75-126.266q-2.343 0-4.125-1.563c-1.18-1.05-1.765-2.43-1.765-4.14 0-1.57.586-2.88 1.765-3.922q1.782-1.576 4.125-1.578h93.485q2.355 0 4.125 1.578 1.765 1.564 1.765 4.125-.001 2.55-1.765 4.031-1.77 1.47-4.125 1.469Zm130.386-11.203h72.08q2.354 0 4.124 1.672 1.765 1.675 1.766 4.218-.001 2.565-1.766 4.141-1.77 1.564-4.125 1.563h-67.562l1.968-3.344v55.187l-2.156-2.562h58.906q2.356 0 4.125 1.781 1.765 1.77 1.766 4.125-.001 2.55-1.766 4.125-1.77 1.564-4.125 1.563h-58.515l1.765-1.97v56.563l-.984-1.187h66.578q2.355 0 4.125 1.781 1.765 1.77 1.766 4.125-.001 2.55-1.766 4.125-1.77 1.564-4.125 1.563h-72.078c-1.563 0-2.938-.586-4.125-1.766-1.18-1.176-1.766-2.55-1.766-4.125v-125.688c0-1.562.586-2.93 1.766-4.109q1.78-1.78 4.125-1.781Zm206.006 10.219q2.342 1.564 2.734 4.03.405 2.457-1.172 4.813-1.375 1.77-3.531 1.97a7.6 7.6 0 0 1-4.125-.798 65.9 65.9 0 0 0-16.016-7.656c-5.687-1.832-11.804-2.75-18.343-2.75-7.993 0-15.422 1.406-22.297 4.219q-10.314 4.218-17.969 12.172t-11.875 18.765q-4.218 10.8-4.219 23.75 0 13.36 4.313 24.266 4.325 10.893 12.078 18.75a52.7 52.7 0 0 0 17.969 11.969q10.217 4.125 22 4.125 9.608.002 18.156-2.75a70 70 0 0 0 16-7.454q1.968-1.183 4.219-.89 2.262.298 3.64 2.265 1.764 2.159 1.266 4.61-.485 2.456-2.64 3.828-4.91 3.142-11.594 5.89-6.676 2.755-14.141 4.422a68 68 0 0 1-14.906 1.672c-9.43 0-18.266-1.703-26.516-5.109a69.4 69.4 0 0 1-22-14.438c-6.406-6.218-11.414-13.644-15.016-22.28q-5.407-12.967-5.406-28.876 0-15.31 5.297-28.172 5.311-12.874 14.734-22.297 9.423-9.42 21.985-14.718c8.383-3.54 17.36-5.313 26.922-5.313q11.187 0 21.593 3.14 10.406 3.143 18.86 8.845m34.164-10.219c1.563 0 2.961.594 4.204 1.781q1.875 1.77 1.875 4.313v125.28q-.188 2.567-2.063 4.329-1.863 1.768-4.219 1.766-2.753.002-4.422-1.766c-1.117-1.176-1.671-2.617-1.671-4.328v-125.281q-.002-2.543 1.765-4.313 1.78-1.78 4.531-1.781m92.094 0q2.747 0 4.422 1.781 1.67 1.77 1.672 4.313v125.28q-.205 2.567-1.875 4.329-1.675 1.768-4.422 1.766-2.55.002-4.312-1.766-1.768-1.763-1.766-4.328v-125.281c0-1.696.617-3.133 1.86-4.313q1.874-1.78 4.421-1.781m-93.078 61.469h93.281l-.203 11.39h-93.875Zm236.618-61.469q2.56 0 4.031 1.578c.977 1.043 1.47 2.352 1.47 3.922v125.687q0 2.94-1.876 4.61-1.863 1.674-4.219 1.672c-.78 0-1.632-.16-2.546-.485q-1.377-.499-2.157-1.484l-87.578-118.016 3.328-1.765v116.453q0 2.156-1.578 3.734-1.565 1.564-3.922 1.563-2.549 0-4.03-1.563-1.47-1.577-1.47-3.734v-126.282c0-1.957.586-3.425 1.766-4.406q1.781-1.483 3.937-1.484 1.172.001 2.547.5a4.2 4.2 0 0 1 2.157 1.672l86.609 116.64-1.969 3.532v-116.844c0-1.57.555-2.88 1.672-3.922q1.67-1.576 3.828-1.578m54.783 131.375q-.188 2.564-2.063 4.328-1.863 1.768-4.218 1.766-2.753.002-4.422-1.766-1.674-1.763-1.672-4.328v-125.281c0-1.696.586-3.133 1.766-4.313q1.779-1.78 4.53-1.781 2.343 0 4.204 1.781 1.875 1.77 1.875 4.313Zm134.904 6.875q-2.55 0-4.312-2.156l-55.766-70.11 9.219-9.219 56.172 71.079q1.373 1.968 1.375 4.125-.002 3.141-2.266 4.718c-1.5 1.04-2.977 1.563-4.422 1.563m-2.156-137.844q2.355.001 4.031 1.766c1.113 1.18 1.672 2.484 1.672 3.922q0 2.361-1.781 4.125l-89.14 83.453-1.58-13.344 82.485-77.969q1.952-1.951 4.313-1.953m-89.938 137.063q-2.752.002-4.422-1.766c-1.117-1.176-1.671-2.617-1.671-4.328v-125.281c0-1.696.585-3.133 1.765-4.313 1.188-1.187 2.695-1.781 4.531-1.781q2.543 0 4.313 1.781 1.765 1.77 1.766 4.313v125.28q-.188 2.567-1.97 4.329-1.768 1.768-4.312 1.766m0 0"/></svg>