<svg xmlns="http://www.w3.org/2000/svg" width="3000" height="3000" viewBox="0 0 2250 2250"><defs><clipPath id="a"><path d="M128.277 969H240v231H128.277Zm0 0"/></clipPath><clipPath id="b"><path d="M2010 969h111.64v231H2010Zm0 0"/></clipPath></defs><g clip-path="url(#a)"><path d="M183.648 969.871c-30.585 0-55.37 24.785-55.37 55.367v118.5c0 30.586 24.785 55.367 55.37 55.367 30.582 0 55.368-24.78 55.368-55.367v-118.5c.007-30.574-24.786-55.367-55.368-55.367m0 0"/></g><path d="M371.914 812.16c-30.586 0-55.371 24.781-55.371 55.363v433.93c0 30.582 24.785 55.367 55.371 55.367s55.367-24.777 55.367-55.36V867.532c0-30.582-24.781-55.37-55.367-55.37Zm188.258-283.008c-30.582 0-55.367 24.785-55.367 55.368v999.945c0 30.582 24.785 55.367 55.367 55.367 30.586 0 55.371-24.785 55.371-55.367V584.52c0-30.582-24.785-55.368-55.371-55.368m188.262 238.774c-30.586 0-55.371 24.785-55.371 55.367v522.39c0 30.587 24.785 55.368 55.37 55.368 30.587 0 55.368-24.781 55.368-55.367V823.293c.008-30.574-24.781-55.367-55.367-55.367M936.7 146.113c-30.587 0-55.368 24.782-55.368 55.367v1766.024c0 30.586 24.781 55.367 55.367 55.367s55.371-24.781 55.371-55.367V201.48c0-30.585-24.785-55.367-55.37-55.367m188.26 247.625c-30.585 0-55.37 24.782-55.37 55.364v1270.78c0 30.583 24.785 55.364 55.37 55.364 30.583 0 55.368-24.781 55.368-55.363V449.102c0-30.582-24.785-55.364-55.367-55.364Zm188.259 416.575c-30.582 0-55.367 24.78-55.367 55.363v437.633c0 30.582 24.785 55.363 55.367 55.363 30.586 0 55.37-24.781 55.37-55.363V865.676c.005-30.582-24.784-55.364-55.37-55.364Zm188.269-484.653c-30.586 0-55.37 24.781-55.37 55.367v1406.926c0 30.582 24.784 55.363 55.37 55.363 30.582 0 55.367-24.78 55.367-55.363V381.027c0-30.578-24.785-55.367-55.367-55.367m188.258 216.715c-30.586 0-55.367 24.785-55.367 55.367v973.492c0 30.586 24.781 55.368 55.367 55.368s55.371-24.782 55.371-55.368V597.75c-.004-30.586-24.785-55.375-55.37-55.375Zm188.262 328.027c-30.586 0-55.371 24.782-55.371 55.368v317.44c0 30.583 24.785 55.368 55.37 55.368 30.583 0 55.368-24.785 55.368-55.367V925.77c.008-30.579-24.785-55.368-55.367-55.368m0 0"/><g clip-path="url(#b)"><path d="M2066.273 969.871c-30.586 0-55.37 24.785-55.37 55.367v118.5c0 30.586 24.784 55.367 55.37 55.367s55.368-24.78 55.368-55.367v-118.5c0-30.574-24.782-55.367-55.368-55.367m0 0"/></g></svg>