<svg xmlns="http://www.w3.org/2000/svg" width="3000" height="3000" version="1.0" viewBox="0 0 2250 2250"><defs><clipPath id="a"><path d="M128.277 969H240v231H128.277Zm0 0"/></clipPath><clipPath id="b"><path d="M881 146h112v1877.945H881Zm0 0"/></clipPath><clipPath id="c"><path d="M2010 969h111.64v231H2010Zm0 0"/></clipPath></defs><g clip-path="url(#a)"><path fill="#0a0c27" d="M183.648 969.938c-30.585 0-55.37 24.785-55.37 55.37v118.512c0 30.586 24.785 55.371 55.37 55.371 30.586 0 55.372-24.785 55.372-55.37v-118.512c.007-30.579-24.786-55.371-55.372-55.371Zm0 0"/></g><path fill="#0a0c27" d="M371.922 812.21c-30.586 0-55.371 24.786-55.371 55.372v433.965c0 30.586 24.785 55.371 55.37 55.371 30.587 0 55.372-24.777 55.372-55.363V867.59c0-30.586-24.785-55.38-55.371-55.38ZM560.188 529.184c-30.586 0-55.372 24.785-55.372 55.37v1000.028c0 30.586 24.786 55.371 55.372 55.371 30.585 0 55.37-24.785 55.37-55.371V584.555c0-30.586-24.785-55.371-55.37-55.371ZM748.457 767.977c-30.586 0-55.371 24.785-55.371 55.37v522.434c0 30.586 24.785 55.371 55.371 55.371 30.586 0 55.371-24.785 55.371-55.37V823.347c.004-30.578-24.785-55.371-55.371-55.371Zm0 0"/><g clip-path="url(#b)"><path fill="#0a0c27" d="M936.73 146.113c-30.585 0-55.37 24.785-55.37 55.371v1766.168c0 30.586 24.785 55.371 55.37 55.371 30.582 0 55.368-24.785 55.368-55.37V201.483c0-30.586-24.785-55.37-55.368-55.37Zm0 0"/></g><path fill="#0a0c27" d="M1124.996 393.758c-30.586 0-55.371 24.785-55.371 55.37v1270.88c0 30.586 24.785 55.37 55.371 55.37 30.586 0 55.371-24.784 55.371-55.37V449.128c0-30.585-24.785-55.37-55.37-55.37ZM1313.262 810.363c-30.586 0-55.371 24.785-55.371 55.371v437.668c0 30.586 24.785 55.371 55.37 55.371 30.587 0 55.372-24.785 55.372-55.37V865.733c.008-30.586-24.785-55.37-55.371-55.37ZM1501.535 325.676c-30.586 0-55.37 24.785-55.37 55.37v1407.04c0 30.586 24.784 55.371 55.37 55.371s55.371-24.785 55.371-55.371V381.046c0-30.581-24.785-55.37-55.37-55.37ZM1689.8 542.406c-30.585 0-55.37 24.785-55.37 55.371v973.575c0 30.585 24.785 55.37 55.37 55.37 30.587 0 55.372-24.784 55.372-55.37V597.785c0-30.586-24.785-55.379-55.371-55.379ZM1878.066 870.46c-30.586 0-55.37 24.786-55.37 55.372v317.469c0 30.586 24.784 55.37 55.37 55.37s55.371-24.784 55.371-55.37V925.832c.008-30.578-24.785-55.371-55.37-55.371Zm0 0"/><g clip-path="url(#c)"><path fill="#0a0c27" d="M2066.34 969.938c-30.586 0-55.371 24.785-55.371 55.37v118.512c0 30.586 24.785 55.371 55.37 55.371 30.587 0 55.372-24.785 55.372-55.37v-118.512c0-30.579-24.785-55.371-55.371-55.371Zm0 0"/></g></svg>